<svg xmlns="http://www.w3.org/2000/svg" xmlns:xlink="http://www.w3.org/1999/xlink" width="204" zoomAndPan="magnify" viewBox="0 0 153 153.000002" height="204" preserveAspectRatio="xMidYMid meet" version="1.0"><defs><clipPath id="id1"><path d="M 3.058594 2.558594 L 149.847656 2.558594 L 149.847656 149.351562 L 3.058594 149.351562 Z M 3.058594 2.558594 " clip-rule="nonzero"/></clipPath><clipPath id="id2"><path d="M 149.863281 75.921875 C 149.863281 35.453125 116.890625 2.558594 76.417969 2.558594 C 35.949219 2.558594 3.058594 35.453125 3.058594 75.921875 C 3.058594 116.394531 35.949219 149.363281 76.417969 149.363281 C 116.890625 149.363281 149.863281 116.394531 149.863281 75.921875 Z M 139.144531 75.921875 C 139.144531 110.625 111.121094 138.648438 76.417969 138.648438 C 41.71875 138.648438 13.695312 110.625 13.695312 75.921875 C 13.695312 41.222656 41.71875 13.199219 76.417969 13.199219 C 111.121094 13.199219 139.144531 41.222656 139.144531 75.921875 Z M 139.144531 75.921875 " clip-rule="nonzero"/></clipPath><clipPath id="id3"><path d="M 149.863281 75.921875 C 149.863281 35.453125 116.890625 2.558594 76.417969 2.558594 C 35.949219 2.558594 3.058594 35.453125 3.058594 75.921875 C 3.058594 116.394531 35.949219 149.363281 76.417969 149.363281 C 116.890625 149.363281 149.863281 116.394531 149.863281 75.921875 Z M 139.144531 75.921875 C 139.144531 110.625 111.121094 138.648438 76.417969 138.648438 C 41.71875 138.648438 13.695312 110.625 13.695312 75.921875 C 13.695312 41.222656 41.71875 13.199219 76.417969 13.199219 C 111.121094 13.199219 139.144531 41.222656 139.144531 75.921875 Z M 139.144531 75.921875 " clip-rule="nonzero"/></clipPath><linearGradient x1="32.981279" gradientTransform="matrix(0.00000000000000247, 40.345799, -40.345799, 0.00000000000000247, -156.45637, -1338.433526)" y1="-6.13895" x2="37.132104" gradientUnits="userSpaceOnUse" y2="-5.406982" id="id4"><stop stop-opacity="1" stop-color="rgb(36.099243%, 15.299988%, 45.498657%)" offset="0"/><stop stop-opacity="1" stop-color="rgb(36.099243%, 15.299988%, 45.498657%)" offset="0.0625"/><stop stop-opacity="1" stop-color="rgb(35.899353%, 15.518188%, 45.898438%)" offset="0.0664062"/><stop stop-opacity="1" stop-color="rgb(35.699463%, 15.736389%, 46.299744%)" offset="0.0703125"/><stop stop-opacity="1" stop-color="rgb(35.499573%, 15.917969%, 46.508789%)" offset="0.0742188"/><stop stop-opacity="1" stop-color="rgb(35.299683%, 16.099548%, 46.717834%)" offset="0.078125"/><stop stop-opacity="1" stop-color="rgb(35.299683%, 16.299438%, 46.908569%)" offset="0.0820312"/><stop stop-opacity="1" stop-color="rgb(35.299683%, 16.499329%, 47.099304%)" offset="0.0859375"/><stop stop-opacity="1" stop-color="rgb(35.099792%, 16.690063%, 47.442627%)" offset="0.0898437"/><stop stop-opacity="1" stop-color="rgb(34.899902%, 16.880798%, 47.78595%)" offset="0.09375"/><stop stop-opacity="1" stop-color="rgb(34.718323%, 17.071533%, 47.991943%)" offset="0.0976562"/><stop stop-opacity="1" stop-color="rgb(34.536743%, 17.262268%, 48.199463%)" offset="0.101562"/><stop stop-opacity="1" stop-color="rgb(34.495544%, 17.430115%, 48.620605%)" offset="0.105469"/><stop stop-opacity="1" stop-color="rgb(34.455872%, 17.599487%, 49.043274%)" offset="0.109375"/><stop stop-opacity="1" stop-color="rgb(34.265137%, 17.799377%, 49.234009%)" offset="0.113281"/><stop stop-opacity="1" stop-color="rgb(34.074402%, 17.999268%, 49.424744%)" offset="0.117187"/><stop stop-opacity="1" stop-color="rgb(33.886719%, 18.199158%, 49.812317%)" offset="0.121094"/><stop stop-opacity="1" stop-color="rgb(33.699036%, 18.399048%, 50.19989%)" offset="0.125"/><stop stop-opacity="1" stop-color="rgb(33.505249%, 18.592834%, 50.392151%)" offset="0.132812"/><stop stop-opacity="1" stop-color="rgb(33.305359%, 18.977356%, 50.976562%)" offset="0.136719"/><stop stop-opacity="1" stop-color="rgb(33.299255%, 19.168091%, 51.367188%)" offset="0.140625"/><stop stop-opacity="1" stop-color="rgb(33.099365%, 19.207764%, 51.608276%)" offset="0.144531"/><stop stop-opacity="1" stop-color="rgb(32.899475%, 19.248962%, 51.849365%)" offset="0.148438"/><stop stop-opacity="1" stop-color="rgb(32.699585%, 19.439697%, 52.035522%)" offset="0.152344"/><stop stop-opacity="1" stop-color="rgb(32.499695%, 19.630432%, 52.223206%)" offset="0.15625"/><stop stop-opacity="1" stop-color="rgb(32.348633%, 19.821167%, 52.566528%)" offset="0.160156"/><stop stop-opacity="1" stop-color="rgb(32.199097%, 20.011902%, 52.911377%)" offset="0.164062"/><stop stop-opacity="1" stop-color="rgb(32.199097%, 20.205688%, 53.105164%)" offset="0.171875"/><stop stop-opacity="1" stop-color="rgb(31.999207%, 20.599365%, 53.686523%)" offset="0.175781"/><stop stop-opacity="1" stop-color="rgb(31.799316%, 20.799255%, 54.074097%)" offset="0.179687"/><stop stop-opacity="1" stop-color="rgb(31.620789%, 20.999146%, 54.286194%)" offset="0.183594"/><stop stop-opacity="1" stop-color="rgb(31.443787%, 21.199036%, 54.499817%)" offset="0.1875"/><stop stop-opacity="1" stop-color="rgb(31.221008%, 21.417236%, 54.899597%)" offset="0.191406"/><stop stop-opacity="1" stop-color="rgb(30.999756%, 21.636963%, 55.299377%)" offset="0.195312"/><stop stop-opacity="1" stop-color="rgb(30.990601%, 21.826172%, 55.508423%)" offset="0.199219"/><stop stop-opacity="1" stop-color="rgb(30.981445%, 22.016907%, 55.717468%)" offset="0.203125"/><stop stop-opacity="1" stop-color="rgb(30.79071%, 22.207642%, 56.108093%)" offset="0.207031"/><stop stop-opacity="1" stop-color="rgb(30.599976%, 22.399902%, 56.498718%)" offset="0.210937"/><stop stop-opacity="1" stop-color="rgb(30.409241%, 22.549438%, 56.689453%)" offset="0.21875"/><stop stop-opacity="1" stop-color="rgb(30.207825%, 22.879028%, 57.089233%)" offset="0.222656"/><stop stop-opacity="1" stop-color="rgb(30.198669%, 23.060608%, 57.299805%)" offset="0.226562"/><stop stop-opacity="1" stop-color="rgb(29.977417%, 23.278809%, 57.670593%)" offset="0.230469"/><stop stop-opacity="1" stop-color="rgb(29.756165%, 23.498535%, 58.042908%)" offset="0.234375"/><stop stop-opacity="1" stop-color="rgb(29.577637%, 23.698425%, 58.233643%)" offset="0.238281"/><stop stop-opacity="1" stop-color="rgb(29.399109%, 23.899841%, 58.424377%)" offset="0.242187"/><stop stop-opacity="1" stop-color="rgb(29.199219%, 24.099731%, 58.815002%)" offset="0.246094"/><stop stop-opacity="1" stop-color="rgb(28.999329%, 24.299622%, 59.205627%)" offset="0.25"/><stop stop-opacity="1" stop-color="rgb(28.999329%, 24.491882%, 59.402466%)" offset="0.253906"/><stop stop-opacity="1" stop-color="rgb(28.999329%, 24.685669%, 59.599304%)" offset="0.257812"/><stop stop-opacity="1" stop-color="rgb(28.799438%, 24.876404%, 59.9823%)" offset="0.261719"/><stop stop-opacity="1" stop-color="rgb(28.599548%, 25.067139%, 60.366821%)" offset="0.265625"/><stop stop-opacity="1" stop-color="rgb(28.399658%, 25.282288%, 60.60791%)" offset="0.269531"/><stop stop-opacity="1" stop-color="rgb(28.199768%, 25.498962%, 60.848999%)" offset="0.273437"/><stop stop-opacity="1" stop-color="rgb(27.999878%, 25.698853%, 61.224365%)" offset="0.277344"/><stop stop-opacity="1" stop-color="rgb(27.799988%, 25.898743%, 61.599731%)" offset="0.28125"/><stop stop-opacity="1" stop-color="rgb(27.79541%, 25.904846%, 61.805725%)" offset="0.285156"/><stop stop-opacity="1" stop-color="rgb(27.790833%, 25.91095%, 62.011719%)" offset="0.289062"/><stop stop-opacity="1" stop-color="rgb(27.644348%, 26.104736%, 62.205505%)" offset="0.296875"/><stop stop-opacity="1" stop-color="rgb(27.311707%, 26.498413%, 62.736511%)" offset="0.300781"/><stop stop-opacity="1" stop-color="rgb(27.125549%, 26.699829%, 63.07373%)" offset="0.304687"/><stop stop-opacity="1" stop-color="rgb(27.111816%, 26.899719%, 63.285828%)" offset="0.308594"/><stop stop-opacity="1" stop-color="rgb(27.099609%, 27.099609%, 63.499451%)" offset="0.3125"/><stop stop-opacity="1" stop-color="rgb(26.881409%, 27.313232%, 63.917542%)" offset="0.316406"/><stop stop-opacity="1" stop-color="rgb(26.663208%, 27.526855%, 64.335632%)" offset="0.320312"/><stop stop-opacity="1" stop-color="rgb(26.480103%, 27.671814%, 64.526367%)" offset="0.328125"/><stop stop-opacity="1" stop-color="rgb(26.098633%, 28.007507%, 65.107727%)" offset="0.332031"/><stop stop-opacity="1" stop-color="rgb(25.900269%, 28.199768%, 65.498352%)" offset="0.335938"/><stop stop-opacity="1" stop-color="rgb(25.898743%, 28.399658%, 65.689087%)" offset="0.339844"/><stop stop-opacity="1" stop-color="rgb(25.898743%, 28.599548%, 65.879822%)" offset="0.34375"/><stop stop-opacity="1" stop-color="rgb(25.698853%, 28.799438%, 66.270447%)" offset="0.347656"/><stop stop-opacity="1" stop-color="rgb(25.498962%, 28.999329%, 66.661072%)" offset="0.351562"/><stop stop-opacity="1" stop-color="rgb(25.299072%, 29.199219%, 66.900635%)" offset="0.355469"/><stop stop-opacity="1" stop-color="rgb(25.099182%, 29.399109%, 67.141724%)" offset="0.359375"/><stop stop-opacity="1" stop-color="rgb(24.899292%, 29.598999%, 67.329407%)" offset="0.363281"/><stop stop-opacity="1" stop-color="rgb(24.699402%, 29.798889%, 67.51709%)" offset="0.367188"/><stop stop-opacity="1" stop-color="rgb(24.69635%, 29.998779%, 67.860413%)" offset="0.371094"/><stop stop-opacity="1" stop-color="rgb(24.694824%, 30.198669%, 68.203735%)" offset="0.375"/><stop stop-opacity="1" stop-color="rgb(24.49646%, 30.392456%, 68.400574%)" offset="0.378906"/><stop stop-opacity="1" stop-color="rgb(24.299622%, 30.586243%, 68.598938%)" offset="0.382812"/><stop stop-opacity="1" stop-color="rgb(24.11499%, 30.775452%, 68.981934%)" offset="0.386719"/><stop stop-opacity="1" stop-color="rgb(23.931885%, 30.966187%, 69.366455%)" offset="0.390625"/><stop stop-opacity="1" stop-color="rgb(23.71521%, 31.182861%, 69.607544%)" offset="0.394531"/><stop stop-opacity="1" stop-color="rgb(23.498535%, 31.399536%, 69.848633%)" offset="0.398438"/><stop stop-opacity="1" stop-color="rgb(23.483276%, 31.599426%, 70.223999%)" offset="0.402344"/><stop stop-opacity="1" stop-color="rgb(23.469543%, 31.799316%, 70.599365%)" offset="0.40625"/><stop stop-opacity="1" stop-color="rgb(23.283386%, 31.999207%, 70.803833%)" offset="0.410156"/><stop stop-opacity="1" stop-color="rgb(23.098755%, 32.199097%, 71.009827%)" offset="0.414062"/><stop stop-opacity="1" stop-color="rgb(22.901917%, 32.345581%, 71.400452%)" offset="0.417969"/><stop stop-opacity="1" stop-color="rgb(22.706604%, 32.493591%, 71.791077%)" offset="0.421875"/><stop stop-opacity="1" stop-color="rgb(22.702026%, 32.6828%, 71.981812%)" offset="0.429688"/><stop stop-opacity="1" stop-color="rgb(22.549438%, 32.885742%, 72.335815%)" offset="0.4375"/><stop stop-opacity="1" stop-color="rgb(22.198486%, 33.117676%, 72.917175%)" offset="0.441406"/><stop stop-opacity="1" stop-color="rgb(21.998596%, 33.335876%, 73.335266%)" offset="0.445312"/><stop stop-opacity="1" stop-color="rgb(21.798706%, 33.525085%, 73.526001%)" offset="0.449219"/><stop stop-opacity="1" stop-color="rgb(21.598816%, 33.71582%, 73.716736%)" offset="0.453125"/><stop stop-opacity="1" stop-color="rgb(21.598816%, 33.906555%, 74.107361%)" offset="0.457031"/><stop stop-opacity="1" stop-color="rgb(21.598816%, 34.098816%, 74.497986%)" offset="0.460938"/><stop stop-opacity="1" stop-color="rgb(21.398926%, 34.298706%, 74.697876%)" offset="0.464844"/><stop stop-opacity="1" stop-color="rgb(21.199036%, 34.498596%, 74.899292%)" offset="0.46875"/><stop stop-opacity="1" stop-color="rgb(21.018982%, 34.698486%, 75.279236%)" offset="0.472656"/><stop stop-opacity="1" stop-color="rgb(20.838928%, 34.899902%, 75.660706%)" offset="0.476562"/><stop stop-opacity="1" stop-color="rgb(20.619202%, 35.119629%, 75.900269%)" offset="0.480469"/><stop stop-opacity="1" stop-color="rgb(20.399475%, 35.340881%, 76.141357%)" offset="0.484375"/><stop stop-opacity="1" stop-color="rgb(20.387268%, 35.531616%, 76.519775%)" offset="0.488281"/><stop stop-opacity="1" stop-color="rgb(20.376587%, 35.722351%, 76.899719%)" offset="0.492188"/><stop stop-opacity="1" stop-color="rgb(20.187378%, 35.910034%, 77.101135%)" offset="0.496094"/><stop stop-opacity="1" stop-color="rgb(19.999695%, 36.099243%, 77.302551%)" offset="0.5"/><stop stop-opacity="1" stop-color="rgb(20.191956%, 36.291504%, 77.450562%)" offset="0.507812"/><stop stop-opacity="1" stop-color="rgb(20.391846%, 36.491394%, 77.790833%)" offset="0.515625"/><stop stop-opacity="1" stop-color="rgb(20.799255%, 36.698914%, 78.190613%)" offset="0.519531"/><stop stop-opacity="1" stop-color="rgb(21.199036%, 36.898804%, 78.399658%)" offset="0.523438"/><stop stop-opacity="1" stop-color="rgb(21.206665%, 37.098694%, 78.599548%)" offset="0.527344"/><stop stop-opacity="1" stop-color="rgb(21.214294%, 37.298584%, 78.799438%)" offset="0.53125"/><stop stop-opacity="1" stop-color="rgb(21.411133%, 37.298584%, 78.804016%)" offset="0.535156"/><stop stop-opacity="1" stop-color="rgb(21.609497%, 37.298584%, 78.81012%)" offset="0.539062"/><stop stop-opacity="1" stop-color="rgb(21.803284%, 37.445068%, 79.200745%)" offset="0.542969"/><stop stop-opacity="1" stop-color="rgb(21.998596%, 37.593079%, 79.59137%)" offset="0.546875"/><stop stop-opacity="1" stop-color="rgb(22.192383%, 37.59613%, 79.594421%)" offset="0.554688"/><stop stop-opacity="1" stop-color="rgb(22.525024%, 37.799072%, 79.975891%)" offset="0.558594"/><stop stop-opacity="1" stop-color="rgb(22.665405%, 37.998962%, 80.354309%)" offset="0.5625"/><stop stop-opacity="1" stop-color="rgb(22.88208%, 38.198853%, 80.577087%)" offset="0.566406"/><stop stop-opacity="1" stop-color="rgb(23.098755%, 38.398743%, 80.799866%)" offset="0.570312"/><stop stop-opacity="1" stop-color="rgb(23.106384%, 38.406372%, 80.807495%)" offset="0.578125"/><stop stop-opacity="1" stop-color="rgb(23.306274%, 38.606262%, 81.207275%)" offset="0.582031"/><stop stop-opacity="1" stop-color="rgb(23.498535%, 38.798523%, 81.5979%)" offset="0.585938"/><stop stop-opacity="1" stop-color="rgb(23.693848%, 38.798523%, 81.5979%)" offset="0.59375"/><stop stop-opacity="1" stop-color="rgb(24.093628%, 38.998413%, 81.97937%)" offset="0.597656"/><stop stop-opacity="1" stop-color="rgb(24.299622%, 39.199829%, 82.359314%)" offset="0.601563"/><stop stop-opacity="1" stop-color="rgb(24.499512%, 39.219666%, 82.394409%)" offset="0.605469"/><stop stop-opacity="1" stop-color="rgb(24.699402%, 39.241028%, 82.43103%)" offset="0.609375"/><stop stop-opacity="1" stop-color="rgb(24.899292%, 39.431763%, 82.765198%)" offset="0.613281"/><stop stop-opacity="1" stop-color="rgb(25.099182%, 39.622498%, 83.099365%)" offset="0.617188"/><stop stop-opacity="1" stop-color="rgb(25.299072%, 39.810181%, 83.299255%)" offset="0.621094"/><stop stop-opacity="1" stop-color="rgb(25.498962%, 39.99939%, 83.499146%)" offset="0.625"/><stop stop-opacity="1" stop-color="rgb(25.498962%, 39.99939%, 83.499146%)" offset="0.632813"/><stop stop-opacity="1" stop-color="rgb(25.698853%, 40.19928%, 83.882141%)" offset="0.636719"/><stop stop-opacity="1" stop-color="rgb(25.898743%, 40.39917%, 84.265137%)" offset="0.640625"/><stop stop-opacity="1" stop-color="rgb(26.123047%, 40.59906%, 84.306335%)" offset="0.644531"/><stop stop-opacity="1" stop-color="rgb(26.347351%, 40.79895%, 84.347534%)" offset="0.648438"/><stop stop-opacity="1" stop-color="rgb(26.530457%, 40.80658%, 84.7229%)" offset="0.652344"/><stop stop-opacity="1" stop-color="rgb(26.713562%, 40.814209%, 85.099792%)" offset="0.65625"/><stop stop-opacity="1" stop-color="rgb(26.905823%, 41.00647%, 85.10437%)" offset="0.664063"/><stop stop-opacity="1" stop-color="rgb(27.294922%, 41.394043%, 85.499573%)" offset="0.667969"/><stop stop-opacity="1" stop-color="rgb(27.490234%, 41.590881%, 85.890198%)" offset="0.671875"/><stop stop-opacity="1" stop-color="rgb(27.633667%, 41.593933%, 86.080933%)" offset="0.679688"/><stop stop-opacity="1" stop-color="rgb(27.789307%, 41.786194%, 86.2854%)" offset="0.6875"/><stop stop-opacity="1" stop-color="rgb(28.007507%, 42.1875%, 86.698914%)" offset="0.691406"/><stop stop-opacity="1" stop-color="rgb(28.216553%, 42.399597%, 87.098694%)" offset="0.695313"/><stop stop-opacity="1" stop-color="rgb(28.414917%, 42.405701%, 87.106323%)" offset="0.699219"/><stop stop-opacity="1" stop-color="rgb(28.614807%, 42.411804%, 87.115479%)" offset="0.703125"/><stop stop-opacity="1" stop-color="rgb(28.807068%, 42.555237%, 87.45575%)" offset="0.707031"/><stop stop-opacity="1" stop-color="rgb(28.999329%, 42.698669%, 87.797546%)" offset="0.710938"/><stop stop-opacity="1" stop-color="rgb(29.199219%, 42.698669%, 87.986755%)" offset="0.714844"/><stop stop-opacity="1" stop-color="rgb(29.399109%, 42.698669%, 88.17749%)" offset="0.71875"/><stop stop-opacity="1" stop-color="rgb(29.399109%, 42.887878%, 88.188171%)" offset="0.726562"/><stop stop-opacity="1" stop-color="rgb(29.798889%, 43.289185%, 88.598633%)" offset="0.730469"/><stop stop-opacity="1" stop-color="rgb(30.198669%, 43.499756%, 88.999939%)" offset="0.734375"/><stop stop-opacity="1" stop-color="rgb(30.209351%, 43.510437%, 89.01062%)" offset="0.742188"/><stop stop-opacity="1" stop-color="rgb(30.410767%, 43.710327%, 89.4104%)" offset="0.746094"/><stop stop-opacity="1" stop-color="rgb(30.601501%, 43.899536%, 89.7995%)" offset="0.75"/><stop stop-opacity="1" stop-color="rgb(30.796814%, 43.899536%, 89.7995%)" offset="0.757812"/><stop stop-opacity="1" stop-color="rgb(31.195068%, 44.099426%, 90.182495%)" offset="0.761719"/><stop stop-opacity="1" stop-color="rgb(31.399536%, 44.299316%, 90.565491%)" offset="0.765625"/><stop stop-opacity="1" stop-color="rgb(31.599426%, 44.499207%, 90.782166%)" offset="0.769531"/><stop stop-opacity="1" stop-color="rgb(31.799316%, 44.699097%, 90.99884%)" offset="0.773438"/><stop stop-opacity="1" stop-color="rgb(31.813049%, 44.71283%, 91.012573%)" offset="0.78125"/><stop stop-opacity="1" stop-color="rgb(32.164001%, 44.91272%, 91.413879%)" offset="0.785156"/><stop stop-opacity="1" stop-color="rgb(32.499695%, 45.098877%, 91.799927%)" offset="0.789062"/><stop stop-opacity="1" stop-color="rgb(32.499695%, 45.098877%, 91.799927%)" offset="0.796875"/><stop stop-opacity="1" stop-color="rgb(32.699585%, 45.298767%, 92.138672%)" offset="0.800781"/><stop stop-opacity="1" stop-color="rgb(32.899475%, 45.498657%, 92.478943%)" offset="0.804688"/><stop stop-opacity="1" stop-color="rgb(33.087158%, 45.68634%, 92.488098%)" offset="0.8125"/><stop stop-opacity="1" stop-color="rgb(33.505249%, 46.087646%, 92.89856%)" offset="0.816406"/><stop stop-opacity="1" stop-color="rgb(33.734131%, 46.299744%, 93.299866%)" offset="0.820312"/><stop stop-opacity="1" stop-color="rgb(33.91571%, 46.302795%, 93.499756%)" offset="0.824219"/><stop stop-opacity="1" stop-color="rgb(34.098816%, 46.307373%, 93.699646%)" offset="0.828125"/><stop stop-opacity="1" stop-color="rgb(34.098816%, 46.502686%, 93.699646%)" offset="0.835938"/><stop stop-opacity="1" stop-color="rgb(34.487915%, 46.697998%, 94.088745%)" offset="0.839844"/><stop stop-opacity="1" stop-color="rgb(34.877014%, 46.699524%, 94.477844%)" offset="0.84375"/><stop stop-opacity="1" stop-color="rgb(35.046387%, 46.899414%, 94.647217%)" offset="0.847656"/><stop stop-opacity="1" stop-color="rgb(35.217285%, 47.099304%, 94.818115%)" offset="0.851562"/><stop stop-opacity="1" stop-color="rgb(35.27832%, 47.299194%, 95.057678%)" offset="0.855469"/><stop stop-opacity="1" stop-color="rgb(35.339355%, 47.499084%, 95.298767%)" offset="0.859375"/><stop stop-opacity="1" stop-color="rgb(35.523987%, 47.502136%, 95.498657%)" offset="0.863281"/><stop stop-opacity="1" stop-color="rgb(35.710144%, 47.506714%, 95.698547%)" offset="0.867188"/><stop stop-opacity="1" stop-color="rgb(35.905457%, 47.653198%, 95.700073%)" offset="0.871094"/><stop stop-opacity="1" stop-color="rgb(36.102295%, 47.799683%, 95.701599%)" offset="0.875"/><stop stop-opacity="1" stop-color="rgb(36.300659%, 47.991943%, 96.092224%)" offset="0.878906"/><stop stop-opacity="1" stop-color="rgb(36.499023%, 48.184204%, 96.482849%)" offset="0.882812"/><stop stop-opacity="1" stop-color="rgb(36.499023%, 48.191833%, 96.490479%)" offset="0.890625"/><stop stop-opacity="1" stop-color="rgb(36.898804%, 48.399353%, 96.899414%)" offset="0.894531"/><stop stop-opacity="1" stop-color="rgb(37.298584%, 48.599243%, 97.299194%)" offset="0.898438"/><stop stop-opacity="1" stop-color="rgb(37.309265%, 48.612976%, 97.309875%)" offset="0.90625"/><stop stop-opacity="1" stop-color="rgb(37.463379%, 48.812866%, 97.659302%)" offset="0.910156"/><stop stop-opacity="1" stop-color="rgb(37.608337%, 48.999023%, 97.999573%)" offset="0.914062"/><stop stop-opacity="1" stop-color="rgb(37.80365%, 49.194336%, 98.194885%)" offset="0.921875"/><stop stop-opacity="1" stop-color="rgb(38.191223%, 49.394226%, 98.394775%)" offset="0.929688"/><stop stop-opacity="1" stop-color="rgb(38.568115%, 49.598694%, 98.774719%)" offset="0.933594"/><stop stop-opacity="1" stop-color="rgb(38.752747%, 49.798584%, 99.151611%)" offset="0.9375"/><stop stop-opacity="1" stop-color="rgb(38.775635%, 49.798584%, 99.1745%)" offset="1"/></linearGradient><clipPath id="id5"><path d="M 25.121094 65 L 127.949219 65 L 127.949219 88.449219 L 25.121094 88.449219 Z M 25.121094 65 " clip-rule="nonzero"/></clipPath></defs><g clip-path="url(#id1)"><g clip-path="url(#id2)"><g clip-path="url(#id3)"><path fill="url(#id4)" d="M 149.847656 2.558594 L 3.058594 2.558594 L 3.058594 149.351562 L 149.847656 149.351562 Z M 149.847656 2.558594 " fill-rule="nonzero"/></g></g></g><g clip-path="url(#id5)"><path fill="#6c4eb0" d="M 57.246094 88.5 L 57.246094 66.011719 L 58.453125 66.011719 L 58.453125 69.550781 C 58.59375 69.394531 58.726562 69.226562 58.84375 69.050781 C 59.851562 66.9375 61.976562 65.605469 64.292969 65.632812 C 67.042969 65.546875 69.277344 66.578125 70.589844 69.050781 C 71.007812 69.820312 71.328125 70.628906 71.554688 71.476562 C 71.78125 72.320312 71.90625 73.183594 71.929688 74.058594 C 71.953125 74.9375 71.871094 75.804688 71.691406 76.660156 C 71.507812 77.519531 71.226562 78.34375 70.851562 79.132812 C 69.628906 81.90625 66.609375 83.285156 63.375 82.777344 C 62.351562 82.691406 61.414062 82.359375 60.554688 81.789062 C 59.699219 81.214844 59.03125 80.472656 58.546875 79.554688 L 58.546875 88.5 Z M 58.453125 73.96875 L 58.722656 76.609375 C 59.199219 79.613281 60.953125 81.390625 63.710938 81.722656 C 64.359375 81.832031 65.003906 81.824219 65.652344 81.707031 C 66.296875 81.585938 66.902344 81.359375 67.472656 81.027344 C 68.039062 80.695312 68.535156 80.277344 68.957031 79.769531 C 69.382812 79.261719 69.710938 78.699219 69.941406 78.078125 C 71.011719 75.492188 70.933594 72.566406 69.726562 70.039062 C 69.484375 69.480469 69.15625 68.980469 68.746094 68.53125 C 68.339844 68.082031 67.871094 67.707031 67.34375 67.414062 C 66.816406 67.117188 66.253906 66.914062 65.660156 66.804688 C 65.070312 66.695312 64.472656 66.683594 63.875 66.769531 C 63.316406 66.808594 62.773438 66.933594 62.253906 67.148438 C 61.730469 67.359375 61.253906 67.644531 60.820312 68.007812 C 60.386719 68.371094 60.019531 68.792969 59.714844 69.269531 C 59.414062 69.75 59.1875 70.261719 59.042969 70.8125 C 58.785156 71.851562 58.589844 72.902344 58.453125 73.96875 Z M 96.542969 77.023438 C 96.5 77.417969 96.417969 77.800781 96.304688 78.179688 C 96.191406 78.558594 96.042969 78.921875 95.867188 79.273438 C 95.6875 79.625 95.476562 79.957031 95.238281 80.269531 C 95 80.585938 94.738281 80.875 94.449219 81.136719 C 94.15625 81.402344 93.847656 81.640625 93.515625 81.847656 C 93.183594 82.058594 92.835938 82.234375 92.472656 82.378906 C 92.109375 82.523438 91.734375 82.636719 91.351562 82.710938 C 90.96875 82.789062 90.582031 82.832031 90.191406 82.835938 C 85.136719 83.09375 82.761719 79.699219 82.386719 75.777344 C 82.117188 73.605469 82.445312 71.527344 83.371094 69.550781 C 83.6875 68.882812 84.09375 68.285156 84.597656 67.75 C 85.101562 67.21875 85.675781 66.777344 86.320312 66.429688 C 86.960938 66.082031 87.640625 65.839844 88.359375 65.710938 C 89.078125 65.582031 89.796875 65.570312 90.519531 65.671875 C 91.207031 65.730469 91.867188 65.894531 92.5 66.164062 C 93.136719 66.433594 93.714844 66.796875 94.238281 67.25 C 94.761719 67.703125 95.203125 68.226562 95.5625 68.820312 C 95.921875 69.414062 96.183594 70.050781 96.347656 70.730469 C 96.601562 71.964844 96.792969 73.210938 96.914062 74.464844 L 83.636719 74.464844 C 83.390625 78.019531 85.277344 80.878906 87.953125 81.566406 C 91.285156 82.394531 94.132812 80.933594 95.164062 77.730469 C 95.394531 76.90625 95.8125 76.789062 96.550781 77.023438 Z M 83.625 73.328125 L 95.5 73.328125 C 95.425781 69.542969 93.097656 66.792969 89.9375 66.761719 C 86.367188 66.703125 83.78125 69.34375 83.625 73.328125 Z M 99 77.105469 L 100.164062 77.105469 C 100.207031 77.992188 100.472656 78.800781 100.96875 79.53125 C 101.460938 80.261719 102.105469 80.8125 102.902344 81.175781 C 103.898438 81.628906 104.941406 81.839844 106.03125 81.8125 C 107.125 81.78125 108.152344 81.515625 109.125 81.011719 C 109.660156 80.765625 110.078125 80.390625 110.378906 79.878906 C 110.679688 79.371094 110.808594 78.820312 110.765625 78.226562 C 110.78125 77.949219 110.75 77.675781 110.679688 77.40625 C 110.605469 77.136719 110.492188 76.886719 110.335938 76.65625 C 110.183594 76.425781 109.996094 76.222656 109.777344 76.054688 C 109.558594 75.882812 109.320312 75.753906 109.058594 75.660156 C 107.777344 75.179688 106.417969 74.914062 105.113281 74.492188 C 103.753906 74.097656 102.429688 73.609375 101.140625 73.019531 C 99.035156 71.984375 98.90625 67.941406 101.285156 66.660156 C 101.894531 66.3125 102.539062 66.046875 103.214844 65.859375 C 103.890625 65.675781 104.578125 65.578125 105.277344 65.566406 C 105.976562 65.554688 106.667969 65.632812 107.347656 65.796875 C 108.027344 65.960938 108.675781 66.207031 109.296875 66.535156 C 110.835938 67.394531 111.683594 69.128906 111.429688 70.886719 L 110.433594 70.886719 C 110.433594 70.835938 110.34375 70.792969 110.34375 70.746094 C 110.21875 67.523438 107.542969 66.519531 104.671875 66.800781 C 103.804688 66.898438 102.980469 67.164062 102.210938 67.554688 C 101.734375 67.777344 101.367188 68.113281 101.105469 68.570312 C 100.839844 69.027344 100.734375 69.519531 100.78125 70.046875 C 100.785156 70.574219 100.933594 71.050781 101.234375 71.480469 C 101.535156 71.910156 101.933594 72.214844 102.425781 72.390625 C 103.675781 72.855469 105.007812 73.152344 106.304688 73.519531 L 109.441406 74.347656 C 109.796875 74.464844 110.125 74.636719 110.433594 74.855469 C 110.738281 75.074219 111.003906 75.335938 111.230469 75.636719 C 111.457031 75.9375 111.636719 76.269531 111.765625 76.625 C 111.894531 76.980469 111.964844 77.347656 111.984375 77.726562 C 112.234375 79.429688 111.375 81.105469 109.859375 81.878906 C 107.117188 83.449219 102.601562 83.035156 100.59375 81.050781 C 99.5625 80.003906 98.988281 78.582031 99 77.105469 Z M 126.753906 70.886719 L 125.664062 70.886719 C 125.664062 70.738281 125.605469 70.59375 125.589844 70.480469 C 125.578125 70.066406 125.503906 69.664062 125.359375 69.277344 C 125.210938 68.890625 125.007812 68.539062 124.742188 68.222656 C 124.480469 67.90625 124.167969 67.644531 123.816406 67.4375 C 123.460938 67.230469 123.085938 67.085938 122.683594 67.007812 C 121.121094 66.558594 119.585938 66.632812 118.078125 67.234375 C 117.789062 67.316406 117.519531 67.445312 117.269531 67.617188 C 117.019531 67.792969 116.804688 68 116.621094 68.242188 C 116.4375 68.484375 116.296875 68.75 116.199219 69.042969 C 116.101562 69.332031 116.054688 69.628906 116.050781 69.933594 C 116.039062 70.234375 116.082031 70.527344 116.171875 70.8125 C 116.257812 71.097656 116.394531 71.359375 116.574219 71.601562 C 116.753906 71.839844 116.96875 72.039062 117.214844 72.203125 C 117.464844 72.367188 117.730469 72.488281 118.019531 72.558594 L 123.011719 73.851562 C 123.550781 73.984375 124.082031 74.148438 124.601562 74.34375 C 126.191406 74.929688 127.273438 76.421875 127.320312 78.132812 C 127.332031 78.550781 127.285156 78.960938 127.171875 79.363281 C 127.0625 79.765625 126.894531 80.144531 126.671875 80.496094 C 126.445312 80.847656 126.175781 81.15625 125.859375 81.425781 C 125.542969 81.695312 125.195312 81.910156 124.8125 82.074219 C 123.644531 82.613281 122.414062 82.886719 121.128906 82.898438 C 119.84375 82.914062 118.609375 82.664062 117.425781 82.148438 C 116.945312 81.9375 116.507812 81.660156 116.113281 81.316406 C 115.714844 80.96875 115.378906 80.574219 115.105469 80.121094 C 114.828125 79.671875 114.625 79.191406 114.496094 78.679688 C 114.363281 78.164062 114.3125 77.644531 114.339844 77.117188 L 115.40625 77.117188 C 115.808594 79.074219 117.136719 80.703125 118.957031 81.472656 C 120.78125 82.246094 122.859375 82.054688 124.515625 80.96875 C 125.023438 80.703125 125.421875 80.320312 125.707031 79.816406 C 125.992188 79.316406 126.121094 78.773438 126.09375 78.195312 C 126.105469 77.917969 126.074219 77.644531 125.996094 77.375 C 125.921875 77.109375 125.804688 76.859375 125.648438 76.628906 C 125.492188 76.398438 125.304688 76.199219 125.085938 76.03125 C 124.863281 75.863281 124.621094 75.734375 124.359375 75.648438 C 123.082031 75.164062 121.71875 74.910156 120.414062 74.476562 C 119.046875 74.089844 117.714844 73.605469 116.417969 73.023438 C 114.363281 72 114.203125 67.992188 116.539062 66.710938 C 117.15625 66.347656 117.808594 66.074219 118.496094 65.882812 C 119.1875 65.6875 119.886719 65.589844 120.601562 65.582031 C 121.3125 65.574219 122.015625 65.65625 122.707031 65.832031 C 123.398438 66.007812 124.058594 66.273438 124.683594 66.621094 C 125.039062 66.835938 125.359375 67.097656 125.640625 67.410156 C 125.921875 67.71875 126.15625 68.0625 126.339844 68.441406 C 126.519531 68.820312 126.648438 69.214844 126.714844 69.632812 C 126.785156 70.046875 126.792969 70.460938 126.742188 70.878906 Z M 55.261719 82.429688 C 55.046875 82.511719 54.824219 82.554688 54.59375 82.554688 C 54.367188 82.554688 54.144531 82.511719 53.929688 82.429688 C 53.714844 82.347656 53.519531 82.226562 53.347656 82.074219 C 53.175781 81.917969 53.039062 81.738281 52.929688 81.535156 L 48.6875 75.597656 L 48.074219 74.765625 L 43.148438 81.542969 C 43.046875 81.738281 42.917969 81.914062 42.753906 82.0625 C 42.589844 82.210938 42.40625 82.324219 42.203125 82.40625 C 42 82.488281 41.789062 82.527344 41.570312 82.53125 C 41.351562 82.535156 41.136719 82.5 40.933594 82.421875 L 47.277344 73.8125 L 41.375 66.03125 C 42.25 65.710938 43.226562 66.058594 43.710938 66.859375 L 48.109375 72.871094 L 52.535156 66.882812 C 52.636719 66.691406 52.765625 66.519531 52.929688 66.375 C 53.09375 66.230469 53.273438 66.121094 53.476562 66.042969 C 53.679688 65.96875 53.890625 65.929688 54.105469 65.933594 C 54.324219 65.933594 54.53125 65.972656 54.734375 66.054688 L 52.445312 69.128906 L 49.34375 73.214844 C 49.257812 73.292969 49.1875 73.386719 49.140625 73.492188 C 49.09375 73.601562 49.070312 73.714844 49.070312 73.832031 C 49.070312 73.949219 49.09375 74.0625 49.140625 74.171875 C 49.1875 74.277344 49.257812 74.371094 49.34375 74.449219 L 55.253906 82.429688 Z M 82.199219 65.949219 L 82.199219 67.117188 C 81.785156 67.089844 81.371094 67.109375 80.957031 67.167969 C 80.546875 67.226562 80.144531 67.332031 79.753906 67.476562 C 79.363281 67.621094 78.992188 67.804688 78.640625 68.03125 C 78.289062 68.253906 77.964844 68.511719 77.664062 68.804688 C 77.367188 69.097656 77.101562 69.417969 76.871094 69.769531 C 76.636719 70.117188 76.445312 70.488281 76.289062 70.878906 C 76.132812 71.269531 76.019531 71.671875 75.949219 72.085938 C 75.875 72.5 75.847656 72.917969 75.863281 73.339844 C 75.863281 76.074219 75.863281 78.808594 75.863281 81.542969 L 75.863281 82.472656 L 74.6875 82.472656 L 74.6875 66.019531 L 75.847656 66.019531 L 75.847656 69.390625 C 77.265625 66.933594 79.457031 66.019531 82.207031 65.953125 Z M 25.746094 73.703125 L 26.261719 71.121094 C 27.679688 66.015625 33.46875 63.890625 37.449219 67.050781 C 39.78125 68.90625 40.359375 71.527344 40.246094 74.484375 L 27.113281 74.484375 C 26.902344 79.765625 30.667969 82.953125 35.484375 81.328125 C 37.074219 80.742188 38.269531 79.40625 38.660156 77.746094 C 38.917969 76.917969 39.335938 76.777344 40.105469 77.015625 C 39.976562 78.039062 39.632812 78.984375 39.074219 79.847656 C 38.515625 80.710938 37.796875 81.410156 36.921875 81.941406 C 36.207031 82.335938 35.453125 82.609375 34.652344 82.761719 C 33.851562 82.914062 33.050781 82.941406 32.242188 82.835938 C 31.433594 82.730469 30.664062 82.503906 29.929688 82.152344 C 29.191406 81.800781 28.527344 81.34375 27.933594 80.777344 C 26.761719 79.445312 26.054688 77.757812 25.917969 75.976562 C 25.917969 75.683594 25.820312 75.410156 25.753906 75.148438 C 25.746094 74.65625 25.742188 74.175781 25.742188 73.703125 Z M 27.132812 73.347656 L 39.007812 73.347656 C 38.933594 69.519531 36.546875 66.804688 33.359375 66.777344 C 29.816406 66.730469 27.277344 69.386719 27.121094 73.332031 Z M 27.132812 73.347656 " fill-opacity="1" fill-rule="nonzero"/></g></svg>