<svg xmlns="http://www.w3.org/2000/svg" xmlns:xlink="http://www.w3.org/1999/xlink" width="150" zoomAndPan="magnify" viewBox="0 0 112.5 112.499997" height="150" preserveAspectRatio="xMidYMid meet" version="1.0"><defs><clipPath id="id1"><path d="M 0 8.085938 L 112.003906 8.085938 L 112.003906 104.085938 L 0 104.085938 Z M 0 8.085938 " clip-rule="nonzero"/></clipPath></defs><g clip-path="url(#id1)"><path fill="#ffffff" d="M 12.101562 8.085938 C 6.078125 16.085938 8.085938 29.085938 11.035156 32.898438 C 4.261719 39.992188 0.121094 49.585938 0.121094 61.960938 C 0.0585938 87.085938 19.9375 104.085938 56.28125 104.085938 C 92.625 104.085938 112.441406 87.085938 112.441406 61.960938 C 112.441406 49.179688 108.492188 39.585938 102.03125 32.648438 C 104.414062 29.085938 106.421875 16.085938 100.398438 8.085938 C 85.347656 8.085938 76.316406 19.085938 76.316406 19.085938 C 76.316406 19.085938 69.292969 16.085938 56.25 16.085938 C 43.207031 16.085938 36.148438 19.273438 36.148438 19.273438 C 36.148438 19.273438 27.152344 8.085938 12.101562 8.085938 Z M 34.175781 52.085938 C 43.925781 52.085938 44.273438 55.898438 55.558594 56.054688 C 55.8125 56.054688 56.09375 56.023438 56.375 56.023438 C 56.8125 56.023438 57.441406 56.023438 57.976562 56.023438 C 68.195312 55.617188 68.886719 52.085938 78.324219 52.085938 C 88.296875 52.085938 96.386719 60.148438 96.386719 70.085938 C 96.386719 76.367188 96.386719 96.085938 56.25 96.085938 C 16.113281 96.085938 16.113281 76.867188 16.113281 70.085938 C 16.113281 60.148438 24.203125 52.085938 34.175781 52.085938 Z M 36.183594 64.085938 C 33.957031 64.085938 32.167969 67.679688 32.167969 72.085938 C 32.167969 76.492188 33.957031 80.085938 36.183594 80.085938 C 38.40625 80.085938 40.195312 76.492188 40.195312 72.085938 C 40.195312 67.679688 38.40625 64.085938 36.183594 64.085938 Z M 76.316406 64.085938 C 74.09375 64.085938 72.304688 67.679688 72.304688 72.085938 C 72.304688 76.492188 74.09375 80.085938 76.316406 80.085938 C 78.542969 80.085938 80.332031 76.492188 80.332031 72.085938 C 80.332031 67.679688 78.542969 64.085938 76.316406 64.085938 Z M 76.316406 64.085938 " fill-opacity="1" fill-rule="nonzero"/></g></svg>