<svg xmlns="http://www.w3.org/2000/svg" xmlns:xlink="http://www.w3.org/1999/xlink" width="150" zoomAndPan="magnify" viewBox="0 0 112.5 112.499997" height="150" preserveAspectRatio="xMidYMid meet" version="1.0"><defs><clipPath id="id1"><path d="M 2 1.742188 L 110.492188 1.742188 L 110.492188 110.492188 L 2 110.492188 Z M 2 1.742188 " clip-rule="nonzero"/></clipPath></defs><g clip-path="url(#id1)"><path fill="#ffffff" d="M 94.726562 17.566406 C 84.554688 7.34375 71.015625 1.742188 56.609375 1.742188 C 26.917969 1.742188 2.722656 25.941406 2.722656 55.628906 C 2.722656 65.144531 5.222656 74.386719 9.898438 82.542969 L 2.289062 110.492188 L 30.835938 102.988281 C 38.71875 107.285156 47.582031 109.570312 56.609375 109.570312 C 86.296875 109.570312 110.492188 85.371094 110.492188 55.683594 C 110.492188 41.273438 104.894531 27.734375 94.726562 17.566406 Z M 56.609375 100.433594 C 48.558594 100.433594 40.675781 98.257812 33.769531 94.179688 L 32.140625 93.203125 L 15.175781 97.660156 L 19.6875 81.132812 L 18.601562 79.445312 C 14.140625 72.320312 11.75 64.058594 11.75 55.628906 C 11.75 30.941406 31.867188 10.824219 56.554688 10.824219 C 68.515625 10.824219 79.773438 15.5 88.199219 23.984375 C 96.683594 32.464844 101.304688 43.722656 101.304688 55.683594 C 101.414062 80.371094 81.292969 100.433594 56.609375 100.433594 Z M 81.183594 66.9375 C 79.824219 66.285156 73.191406 63.023438 71.996094 62.535156 C 70.746094 62.101562 69.875 61.882812 68.949219 63.1875 C 68.027344 64.546875 65.472656 67.589844 64.710938 68.460938 C 63.949219 69.386719 63.132812 69.496094 61.773438 68.789062 C 60.414062 68.136719 56.0625 66.667969 50.953125 62.101562 C 46.929688 58.511719 44.265625 54.105469 43.449219 52.746094 C 42.6875 51.386719 43.339844 50.679688 44.046875 49.972656 C 44.644531 49.375 45.40625 48.398438 46.058594 47.636719 C 46.710938 46.875 46.984375 46.277344 47.417969 45.40625 C 47.851562 44.480469 47.636719 43.722656 47.308594 43.070312 C 46.984375 42.414062 44.265625 35.78125 43.175781 33.0625 C 42.089844 30.453125 40.949219 30.78125 40.132812 30.726562 C 39.316406 30.726562 38.445312 30.726562 37.523438 30.726562 C 36.597656 30.726562 35.183594 31.050781 33.933594 32.410156 C 32.738281 33.769531 29.257812 37.03125 29.257812 43.667969 C 29.257812 50.300781 34.097656 56.714844 34.75 57.585938 C 35.402344 58.511719 44.265625 72.105469 57.75 77.921875 C 60.957031 79.335938 63.460938 80.152344 65.417969 80.75 C 68.625 81.785156 71.5625 81.621094 73.898438 81.292969 C 76.507812 80.914062 81.890625 78.03125 82.980469 74.878906 C 84.121094 71.722656 84.121094 69.058594 83.742188 68.460938 C 83.359375 67.863281 82.542969 67.589844 81.183594 66.9375 Z M 81.183594 66.9375 " fill-opacity="1" fill-rule="nonzero"/></g></svg>