<svg xmlns="http://www.w3.org/2000/svg" xmlns:xlink="http://www.w3.org/1999/xlink" width="150" zoomAndPan="magnify" viewBox="0 0 112.5 112.499997" height="150" preserveAspectRatio="xMidYMid meet" version="1.0"><defs><clipPath id="id1"><path d="M 3.316406 11.25 L 109.066406 11.25 L 109.066406 101.25 L 3.316406 101.25 Z M 3.316406 11.25 " clip-rule="nonzero"/></clipPath></defs><g clip-path="url(#id1)"><path fill="#ffffff" d="M 99.101562 11.289062 L 13.28125 11.289062 C 7.789062 11.289062 3.316406 15.765625 3.316406 21.261719 L 3.316406 91.238281 C 3.316406 96.734375 7.789062 101.210938 13.28125 101.210938 L 99.101562 101.210938 C 104.59375 101.210938 109.066406 96.734375 109.066406 91.238281 L 109.066406 21.261719 C 109.066406 15.765625 104.59375 11.289062 99.101562 11.289062 Z M 11.425781 21.261719 C 11.425781 20.253906 12.269531 19.40625 13.28125 19.40625 L 99.101562 19.40625 C 100.109375 19.40625 100.957031 20.253906 100.957031 21.261719 L 100.957031 22.554688 L 57.144531 66.417969 C 56.625 66.9375 55.757812 66.9375 55.234375 66.417969 L 11.425781 22.554688 Z M 100.957031 91.246094 C 100.957031 92.257812 100.109375 93.105469 99.101562 93.105469 L 13.28125 93.105469 C 12.269531 93.105469 11.425781 92.257812 11.425781 91.246094 L 11.425781 34.03125 L 49.492188 72.144531 C 51.273438 73.925781 53.648438 74.914062 56.179688 74.914062 C 58.707031 74.914062 61.085938 73.9375 62.867188 72.144531 L 100.933594 34.03125 L 100.933594 91.246094 Z M 100.957031 91.246094 " fill-opacity="1" fill-rule="nonzero"/></g></svg>