<svg xmlns="http://www.w3.org/2000/svg" xmlns:xlink="http://www.w3.org/1999/xlink" width="150" zoomAndPan="magnify" viewBox="0 0 112.5 112.499997" height="150" preserveAspectRatio="xMidYMid meet" version="1.0"><defs><clipPath id="id1"><path d="M 3 1 L 110 1 L 110 112.003906 L 3 112.003906 Z M 3 1 " clip-rule="nonzero"/></clipPath></defs><g clip-path="url(#id1)"><path fill="#ffffff" d="M 76.257812 112.5 C 75.890625 112.5 75.527344 112.464844 75.167969 112.394531 C 74.804688 112.320312 74.457031 112.214844 74.117188 112.074219 C 73.777344 111.933594 73.453125 111.761719 73.148438 111.558594 C 72.84375 111.355469 72.558594 111.125 72.300781 110.863281 C 72.039062 110.605469 71.808594 110.324219 71.605469 110.019531 C 71.398438 109.714844 71.226562 109.390625 71.085938 109.054688 C 70.945312 108.714844 70.839844 108.367188 70.769531 108.007812 C 70.695312 107.648438 70.660156 107.285156 70.660156 106.917969 L 70.660156 87.375 C 70.660156 86.601562 70.660156 85.882812 70.679688 85.222656 C 70.738281 81.386719 70.714844 81.367188 69.503906 80.15625 C 69.128906 79.785156 68.816406 79.367188 68.5625 78.90625 C 68.308594 78.445312 68.125 77.960938 68.007812 77.445312 C 67.890625 76.933594 67.847656 76.414062 67.878906 75.890625 C 67.910156 75.363281 68.011719 74.855469 68.1875 74.359375 C 68.363281 73.863281 68.605469 73.398438 68.910156 72.972656 C 69.21875 72.542969 69.578125 72.167969 69.992188 71.839844 C 70.402344 71.511719 70.855469 71.25 71.34375 71.050781 C 71.832031 70.851562 72.335938 70.722656 72.859375 70.664062 C 86.257812 69.230469 98.648438 64.855469 98.648438 42.710938 C 98.652344 40.101562 98.160156 37.585938 97.171875 35.167969 C 96.1875 32.746094 94.78125 30.601562 92.953125 28.734375 C 92.582031 28.351562 92.273438 27.929688 92.023438 27.460938 C 91.773438 26.992188 91.597656 26.5 91.488281 25.980469 C 91.378906 25.460938 91.347656 24.9375 91.386719 24.410156 C 91.429688 23.878906 91.542969 23.367188 91.730469 22.871094 C 92.34375 21.265625 92.710938 19.601562 92.839844 17.886719 C 92.964844 16.171875 92.84375 14.476562 92.476562 12.796875 C 87.9375 14.09375 83.753906 16.121094 79.925781 18.875 C 79.261719 19.316406 78.535156 19.601562 77.746094 19.734375 C 76.960938 19.863281 76.179688 19.832031 75.40625 19.632812 C 70.179688 18.277344 64.867188 17.601562 59.464844 17.601562 C 54.0625 17.601562 48.75 18.277344 43.523438 19.632812 C 42.75 19.835938 41.96875 19.867188 41.183594 19.738281 C 40.394531 19.605469 39.667969 19.316406 39.003906 18.875 C 35.175781 16.121094 30.992188 14.09375 26.453125 12.796875 C 26.085938 14.476562 25.964844 16.171875 26.09375 17.886719 C 26.21875 19.601562 26.589844 21.265625 27.199219 22.871094 C 27.386719 23.367188 27.5 23.878906 27.542969 24.410156 C 27.585938 24.9375 27.550781 25.460938 27.441406 25.980469 C 27.335938 26.5 27.15625 26.992188 26.90625 27.460938 C 26.65625 27.929688 26.347656 28.351562 25.976562 28.734375 C 24.148438 30.601562 22.742188 32.746094 21.757812 35.167969 C 20.769531 37.585938 20.277344 40.101562 20.28125 42.710938 C 20.28125 64.847656 32.675781 69.230469 46.066406 70.65625 C 46.589844 70.710938 47.097656 70.839844 47.585938 71.039062 C 48.074219 71.238281 48.523438 71.503906 48.9375 71.828125 C 49.351562 72.15625 49.710938 72.53125 50.015625 72.960938 C 50.324219 73.386719 50.5625 73.851562 50.738281 74.347656 C 50.914062 74.84375 51.019531 75.351562 51.046875 75.878906 C 51.078125 76.402344 51.035156 76.921875 50.921875 77.433594 C 50.804688 77.949219 50.621094 78.433594 50.363281 78.894531 C 50.109375 79.355469 49.796875 79.773438 49.425781 80.144531 C 48.011719 81.542969 47.703125 82.53125 48.222656 86.671875 C 48.253906 86.90625 48.269531 87.140625 48.269531 87.375 L 48.269531 106.917969 C 48.269531 107.285156 48.234375 107.648438 48.160156 108.007812 C 48.089844 108.367188 47.984375 108.714844 47.84375 109.054688 C 47.703125 109.390625 47.53125 109.714844 47.324219 110.019531 C 47.121094 110.324219 46.890625 110.605469 46.628906 110.863281 C 46.371094 111.125 46.085938 111.355469 45.78125 111.558594 C 45.476562 111.761719 45.152344 111.933594 44.8125 112.074219 C 44.472656 112.214844 44.125 112.320312 43.765625 112.394531 C 43.402344 112.464844 43.039062 112.5 42.671875 112.5 C 42.304688 112.5 41.941406 112.464844 41.578125 112.394531 C 41.21875 112.320312 40.867188 112.214844 40.53125 112.074219 C 40.191406 111.933594 39.867188 111.761719 39.5625 111.558594 C 39.257812 111.355469 38.972656 111.125 38.714844 110.863281 C 38.453125 110.605469 38.222656 110.324219 38.015625 110.019531 C 37.8125 109.714844 37.640625 109.390625 37.5 109.054688 C 37.359375 108.714844 37.253906 108.367188 37.179688 108.007812 C 37.109375 107.648438 37.074219 107.285156 37.074219 106.917969 L 37.074219 102.757812 C 22.464844 104.621094 16.125 95.40625 12.128906 89.585938 C 10.484375 87.203125 8.804688 84.738281 7.507812 84.359375 C 7.152344 84.253906 6.816406 84.117188 6.488281 83.949219 C 6.164062 83.777344 5.859375 83.578125 5.570312 83.347656 C 5.285156 83.117188 5.023438 82.863281 4.789062 82.582031 C 4.554688 82.300781 4.347656 81.996094 4.171875 81.675781 C 3.996094 81.355469 3.851562 81.019531 3.742188 80.667969 C 3.632812 80.316406 3.558594 79.960938 3.519531 79.597656 C 3.480469 79.230469 3.476562 78.867188 3.511719 78.503906 C 3.542969 78.136719 3.613281 77.777344 3.714844 77.425781 C 3.820312 77.074219 3.957031 76.738281 4.125 76.414062 C 4.296875 76.089844 4.496094 75.78125 4.726562 75.496094 C 4.957031 75.210938 5.214844 74.953125 5.496094 74.71875 C 5.78125 74.480469 6.082031 74.277344 6.402344 74.101562 C 6.726562 73.925781 7.0625 73.78125 7.414062 73.671875 C 7.765625 73.5625 8.121094 73.488281 8.488281 73.449219 C 8.855469 73.410156 9.21875 73.40625 9.585938 73.441406 C 9.953125 73.472656 10.3125 73.539062 10.664062 73.644531 C 15.78125 75.144531 18.75 79.464844 21.363281 83.273438 C 25.257812 88.941406 28.195312 93.21875 37.074219 91.46875 L 37.074219 87.714844 C 36.71875 85.335938 36.71875 82.953125 37.074219 80.574219 C 25.648438 78.066406 9.085938 70.347656 9.085938 42.710938 C 9.078125 39.234375 9.644531 35.851562 10.777344 32.566406 C 11.910156 29.277344 13.550781 26.265625 15.695312 23.527344 C 14.910156 20.382812 14.667969 17.195312 14.960938 13.964844 C 15.253906 10.738281 16.070312 7.644531 17.410156 4.691406 C 17.753906 3.929688 18.246094 3.277344 18.882812 2.734375 C 19.519531 2.195312 20.242188 1.8125 21.050781 1.59375 C 22.976562 1.070312 30.046875 0.0976562 43.132812 8.246094 C 48.511719 7.042969 53.957031 6.445312 59.472656 6.445312 C 64.984375 6.445312 70.429688 7.042969 75.808594 8.246094 C 88.902344 0.09375 95.960938 1.0625 97.890625 1.59375 C 98.699219 1.8125 99.421875 2.195312 100.058594 2.734375 C 100.695312 3.277344 101.1875 3.929688 101.53125 4.691406 C 102.871094 7.644531 103.6875 10.738281 103.980469 13.964844 C 104.273438 17.195312 104.03125 20.382812 103.246094 23.527344 C 105.390625 26.265625 107.027344 29.277344 108.160156 32.566406 C 109.289062 35.855469 109.851562 39.234375 109.84375 42.710938 C 109.84375 70.460938 93.140625 78.136719 81.714844 80.609375 C 81.882812 82.199219 81.9375 83.792969 81.875 85.386719 C 81.875 86.003906 81.855469 86.660156 81.855469 87.382812 L 81.855469 106.921875 C 81.855469 107.289062 81.820312 107.652344 81.746094 108.011719 C 81.675781 108.371094 81.570312 108.71875 81.429688 109.058594 C 81.289062 109.394531 81.117188 109.71875 80.910156 110.023438 C 80.707031 110.324219 80.476562 110.609375 80.214844 110.867188 C 79.953125 111.125 79.671875 111.355469 79.367188 111.558594 C 79.0625 111.761719 78.738281 111.933594 78.398438 112.074219 C 78.058594 112.214844 77.710938 112.320312 77.351562 112.394531 C 76.988281 112.464844 76.625 112.5 76.257812 112.5 Z M 76.257812 112.5 " fill-opacity="1" fill-rule="nonzero"/></g></svg>