<svg xmlns="http://www.w3.org/2000/svg" xmlns:xlink="http://www.w3.org/1999/xlink" width="204" zoomAndPan="magnify" viewBox="0 0 153 153.000002" height="204" preserveAspectRatio="xMidYMid meet" version="1.0"><defs><clipPath id="id1"><path d="M 3.058594 2.558594 L 149.847656 2.558594 L 149.847656 149.351562 L 3.058594 149.351562 Z M 3.058594 2.558594 " clip-rule="nonzero"/></clipPath><clipPath id="id2"><path d="M 149.863281 75.921875 C 149.863281 35.453125 116.890625 2.558594 76.417969 2.558594 C 35.949219 2.558594 3.058594 35.453125 3.058594 75.921875 C 3.058594 116.394531 35.949219 149.363281 76.417969 149.363281 C 116.890625 149.363281 149.863281 116.394531 149.863281 75.921875 Z M 139.144531 75.921875 C 139.144531 110.625 111.121094 138.648438 76.417969 138.648438 C 41.71875 138.648438 13.695312 110.625 13.695312 75.921875 C 13.695312 41.222656 41.71875 13.199219 76.417969 13.199219 C 111.121094 13.199219 139.144531 41.222656 139.144531 75.921875 Z M 139.144531 75.921875 " clip-rule="nonzero"/></clipPath><clipPath id="id3"><path d="M 149.863281 75.921875 C 149.863281 35.453125 116.890625 2.558594 76.417969 2.558594 C 35.949219 2.558594 3.058594 35.453125 3.058594 75.921875 C 3.058594 116.394531 35.949219 149.363281 76.417969 149.363281 C 116.890625 149.363281 149.863281 116.394531 149.863281 75.921875 Z M 139.144531 75.921875 C 139.144531 110.625 111.121094 138.648438 76.417969 138.648438 C 41.71875 138.648438 13.695312 110.625 13.695312 75.921875 C 13.695312 41.222656 41.71875 13.199219 76.417969 13.199219 C 111.121094 13.199219 139.144531 41.222656 139.144531 75.921875 Z M 139.144531 75.921875 " clip-rule="nonzero"/></clipPath><linearGradient x1="32.981279" gradientTransform="matrix(0.00000000000000247, 40.345799, -40.345799, 0.00000000000000247, -156.45637, -1338.433526)" y1="-6.13895" x2="37.132104" gradientUnits="userSpaceOnUse" y2="-5.406982" id="id4"><stop stop-opacity="1" stop-color="rgb(36.099243%, 15.299988%, 45.498657%)" offset="0"/><stop stop-opacity="1" stop-color="rgb(36.099243%, 15.299988%, 45.498657%)" offset="0.0625"/><stop stop-opacity="1" stop-color="rgb(35.899353%, 15.518188%, 45.898438%)" offset="0.0664062"/><stop stop-opacity="1" stop-color="rgb(35.699463%, 15.736389%, 46.299744%)" offset="0.0703125"/><stop stop-opacity="1" stop-color="rgb(35.499573%, 15.917969%, 46.508789%)" offset="0.0742188"/><stop stop-opacity="1" stop-color="rgb(35.299683%, 16.099548%, 46.717834%)" offset="0.078125"/><stop stop-opacity="1" stop-color="rgb(35.299683%, 16.299438%, 46.908569%)" offset="0.0820312"/><stop stop-opacity="1" stop-color="rgb(35.299683%, 16.499329%, 47.099304%)" offset="0.0859375"/><stop stop-opacity="1" stop-color="rgb(35.099792%, 16.690063%, 47.442627%)" offset="0.0898437"/><stop stop-opacity="1" stop-color="rgb(34.899902%, 16.880798%, 47.78595%)" offset="0.09375"/><stop stop-opacity="1" stop-color="rgb(34.718323%, 17.071533%, 47.991943%)" offset="0.0976562"/><stop stop-opacity="1" stop-color="rgb(34.536743%, 17.262268%, 48.199463%)" offset="0.101562"/><stop stop-opacity="1" stop-color="rgb(34.495544%, 17.430115%, 48.620605%)" offset="0.105469"/><stop stop-opacity="1" stop-color="rgb(34.455872%, 17.599487%, 49.043274%)" offset="0.109375"/><stop stop-opacity="1" stop-color="rgb(34.265137%, 17.799377%, 49.234009%)" offset="0.113281"/><stop stop-opacity="1" stop-color="rgb(34.074402%, 17.999268%, 49.424744%)" offset="0.117187"/><stop stop-opacity="1" stop-color="rgb(33.886719%, 18.199158%, 49.812317%)" offset="0.121094"/><stop stop-opacity="1" stop-color="rgb(33.699036%, 18.399048%, 50.19989%)" offset="0.125"/><stop stop-opacity="1" stop-color="rgb(33.505249%, 18.592834%, 50.392151%)" offset="0.132812"/><stop stop-opacity="1" stop-color="rgb(33.305359%, 18.977356%, 50.976562%)" offset="0.136719"/><stop stop-opacity="1" stop-color="rgb(33.299255%, 19.168091%, 51.367188%)" offset="0.140625"/><stop stop-opacity="1" stop-color="rgb(33.099365%, 19.207764%, 51.608276%)" offset="0.144531"/><stop stop-opacity="1" stop-color="rgb(32.899475%, 19.248962%, 51.849365%)" offset="0.148438"/><stop stop-opacity="1" stop-color="rgb(32.699585%, 19.439697%, 52.035522%)" offset="0.152344"/><stop stop-opacity="1" stop-color="rgb(32.499695%, 19.630432%, 52.223206%)" offset="0.15625"/><stop stop-opacity="1" stop-color="rgb(32.348633%, 19.821167%, 52.566528%)" offset="0.160156"/><stop stop-opacity="1" stop-color="rgb(32.199097%, 20.011902%, 52.911377%)" offset="0.164062"/><stop stop-opacity="1" stop-color="rgb(32.199097%, 20.205688%, 53.105164%)" offset="0.171875"/><stop stop-opacity="1" stop-color="rgb(31.999207%, 20.599365%, 53.686523%)" offset="0.175781"/><stop stop-opacity="1" stop-color="rgb(31.799316%, 20.799255%, 54.074097%)" offset="0.179687"/><stop stop-opacity="1" stop-color="rgb(31.620789%, 20.999146%, 54.286194%)" offset="0.183594"/><stop stop-opacity="1" stop-color="rgb(31.443787%, 21.199036%, 54.499817%)" offset="0.1875"/><stop stop-opacity="1" stop-color="rgb(31.221008%, 21.417236%, 54.899597%)" offset="0.191406"/><stop stop-opacity="1" stop-color="rgb(30.999756%, 21.636963%, 55.299377%)" offset="0.195312"/><stop stop-opacity="1" stop-color="rgb(30.990601%, 21.826172%, 55.508423%)" offset="0.199219"/><stop stop-opacity="1" stop-color="rgb(30.981445%, 22.016907%, 55.717468%)" offset="0.203125"/><stop stop-opacity="1" stop-color="rgb(30.79071%, 22.207642%, 56.108093%)" offset="0.207031"/><stop stop-opacity="1" stop-color="rgb(30.599976%, 22.399902%, 56.498718%)" offset="0.210937"/><stop stop-opacity="1" stop-color="rgb(30.409241%, 22.549438%, 56.689453%)" offset="0.21875"/><stop stop-opacity="1" stop-color="rgb(30.207825%, 22.879028%, 57.089233%)" offset="0.222656"/><stop stop-opacity="1" stop-color="rgb(30.198669%, 23.060608%, 57.299805%)" offset="0.226562"/><stop stop-opacity="1" stop-color="rgb(29.977417%, 23.278809%, 57.670593%)" offset="0.230469"/><stop stop-opacity="1" stop-color="rgb(29.756165%, 23.498535%, 58.042908%)" offset="0.234375"/><stop stop-opacity="1" stop-color="rgb(29.577637%, 23.698425%, 58.233643%)" offset="0.238281"/><stop stop-opacity="1" stop-color="rgb(29.399109%, 23.899841%, 58.424377%)" offset="0.242187"/><stop stop-opacity="1" stop-color="rgb(29.199219%, 24.099731%, 58.815002%)" offset="0.246094"/><stop stop-opacity="1" stop-color="rgb(28.999329%, 24.299622%, 59.205627%)" offset="0.25"/><stop stop-opacity="1" stop-color="rgb(28.999329%, 24.491882%, 59.402466%)" offset="0.253906"/><stop stop-opacity="1" stop-color="rgb(28.999329%, 24.685669%, 59.599304%)" offset="0.257812"/><stop stop-opacity="1" stop-color="rgb(28.799438%, 24.876404%, 59.9823%)" offset="0.261719"/><stop stop-opacity="1" stop-color="rgb(28.599548%, 25.067139%, 60.366821%)" offset="0.265625"/><stop stop-opacity="1" stop-color="rgb(28.399658%, 25.282288%, 60.60791%)" offset="0.269531"/><stop stop-opacity="1" stop-color="rgb(28.199768%, 25.498962%, 60.848999%)" offset="0.273437"/><stop stop-opacity="1" stop-color="rgb(27.999878%, 25.698853%, 61.224365%)" offset="0.277344"/><stop stop-opacity="1" stop-color="rgb(27.799988%, 25.898743%, 61.599731%)" offset="0.28125"/><stop stop-opacity="1" stop-color="rgb(27.79541%, 25.904846%, 61.805725%)" offset="0.285156"/><stop stop-opacity="1" stop-color="rgb(27.790833%, 25.91095%, 62.011719%)" offset="0.289062"/><stop stop-opacity="1" stop-color="rgb(27.644348%, 26.104736%, 62.205505%)" offset="0.296875"/><stop stop-opacity="1" stop-color="rgb(27.311707%, 26.498413%, 62.736511%)" offset="0.300781"/><stop stop-opacity="1" stop-color="rgb(27.125549%, 26.699829%, 63.07373%)" offset="0.304687"/><stop stop-opacity="1" stop-color="rgb(27.111816%, 26.899719%, 63.285828%)" offset="0.308594"/><stop stop-opacity="1" stop-color="rgb(27.099609%, 27.099609%, 63.499451%)" offset="0.3125"/><stop stop-opacity="1" stop-color="rgb(26.881409%, 27.313232%, 63.917542%)" offset="0.316406"/><stop stop-opacity="1" stop-color="rgb(26.663208%, 27.526855%, 64.335632%)" offset="0.320312"/><stop stop-opacity="1" stop-color="rgb(26.480103%, 27.671814%, 64.526367%)" offset="0.328125"/><stop stop-opacity="1" stop-color="rgb(26.098633%, 28.007507%, 65.107727%)" offset="0.332031"/><stop stop-opacity="1" stop-color="rgb(25.900269%, 28.199768%, 65.498352%)" offset="0.335938"/><stop stop-opacity="1" stop-color="rgb(25.898743%, 28.399658%, 65.689087%)" offset="0.339844"/><stop stop-opacity="1" stop-color="rgb(25.898743%, 28.599548%, 65.879822%)" offset="0.34375"/><stop stop-opacity="1" stop-color="rgb(25.698853%, 28.799438%, 66.270447%)" offset="0.347656"/><stop stop-opacity="1" stop-color="rgb(25.498962%, 28.999329%, 66.661072%)" offset="0.351562"/><stop stop-opacity="1" stop-color="rgb(25.299072%, 29.199219%, 66.900635%)" offset="0.355469"/><stop stop-opacity="1" stop-color="rgb(25.099182%, 29.399109%, 67.141724%)" offset="0.359375"/><stop stop-opacity="1" stop-color="rgb(24.899292%, 29.598999%, 67.329407%)" offset="0.363281"/><stop stop-opacity="1" stop-color="rgb(24.699402%, 29.798889%, 67.51709%)" offset="0.367188"/><stop stop-opacity="1" stop-color="rgb(24.69635%, 29.998779%, 67.860413%)" offset="0.371094"/><stop stop-opacity="1" stop-color="rgb(24.694824%, 30.198669%, 68.203735%)" offset="0.375"/><stop stop-opacity="1" stop-color="rgb(24.49646%, 30.392456%, 68.400574%)" offset="0.378906"/><stop stop-opacity="1" stop-color="rgb(24.299622%, 30.586243%, 68.598938%)" offset="0.382812"/><stop stop-opacity="1" stop-color="rgb(24.11499%, 30.775452%, 68.981934%)" offset="0.386719"/><stop stop-opacity="1" stop-color="rgb(23.931885%, 30.966187%, 69.366455%)" offset="0.390625"/><stop stop-opacity="1" stop-color="rgb(23.71521%, 31.182861%, 69.607544%)" offset="0.394531"/><stop stop-opacity="1" stop-color="rgb(23.498535%, 31.399536%, 69.848633%)" offset="0.398438"/><stop stop-opacity="1" stop-color="rgb(23.483276%, 31.599426%, 70.223999%)" offset="0.402344"/><stop stop-opacity="1" stop-color="rgb(23.469543%, 31.799316%, 70.599365%)" offset="0.40625"/><stop stop-opacity="1" stop-color="rgb(23.283386%, 31.999207%, 70.803833%)" offset="0.410156"/><stop stop-opacity="1" stop-color="rgb(23.098755%, 32.199097%, 71.009827%)" offset="0.414062"/><stop stop-opacity="1" stop-color="rgb(22.901917%, 32.345581%, 71.400452%)" offset="0.417969"/><stop stop-opacity="1" stop-color="rgb(22.706604%, 32.493591%, 71.791077%)" offset="0.421875"/><stop stop-opacity="1" stop-color="rgb(22.702026%, 32.6828%, 71.981812%)" offset="0.429688"/><stop stop-opacity="1" stop-color="rgb(22.549438%, 32.885742%, 72.335815%)" offset="0.4375"/><stop stop-opacity="1" stop-color="rgb(22.198486%, 33.117676%, 72.917175%)" offset="0.441406"/><stop stop-opacity="1" stop-color="rgb(21.998596%, 33.335876%, 73.335266%)" offset="0.445312"/><stop stop-opacity="1" stop-color="rgb(21.798706%, 33.525085%, 73.526001%)" offset="0.449219"/><stop stop-opacity="1" stop-color="rgb(21.598816%, 33.71582%, 73.716736%)" offset="0.453125"/><stop stop-opacity="1" stop-color="rgb(21.598816%, 33.906555%, 74.107361%)" offset="0.457031"/><stop stop-opacity="1" stop-color="rgb(21.598816%, 34.098816%, 74.497986%)" offset="0.460938"/><stop stop-opacity="1" stop-color="rgb(21.398926%, 34.298706%, 74.697876%)" offset="0.464844"/><stop stop-opacity="1" stop-color="rgb(21.199036%, 34.498596%, 74.899292%)" offset="0.46875"/><stop stop-opacity="1" stop-color="rgb(21.018982%, 34.698486%, 75.279236%)" offset="0.472656"/><stop stop-opacity="1" stop-color="rgb(20.838928%, 34.899902%, 75.660706%)" offset="0.476562"/><stop stop-opacity="1" stop-color="rgb(20.619202%, 35.119629%, 75.900269%)" offset="0.480469"/><stop stop-opacity="1" stop-color="rgb(20.399475%, 35.340881%, 76.141357%)" offset="0.484375"/><stop stop-opacity="1" stop-color="rgb(20.387268%, 35.531616%, 76.519775%)" offset="0.488281"/><stop stop-opacity="1" stop-color="rgb(20.376587%, 35.722351%, 76.899719%)" offset="0.492188"/><stop stop-opacity="1" stop-color="rgb(20.187378%, 35.910034%, 77.101135%)" offset="0.496094"/><stop stop-opacity="1" stop-color="rgb(19.999695%, 36.099243%, 77.302551%)" offset="0.5"/><stop stop-opacity="1" stop-color="rgb(20.191956%, 36.291504%, 77.450562%)" offset="0.507812"/><stop stop-opacity="1" stop-color="rgb(20.391846%, 36.491394%, 77.790833%)" offset="0.515625"/><stop stop-opacity="1" stop-color="rgb(20.799255%, 36.698914%, 78.190613%)" offset="0.519531"/><stop stop-opacity="1" stop-color="rgb(21.199036%, 36.898804%, 78.399658%)" offset="0.523438"/><stop stop-opacity="1" stop-color="rgb(21.206665%, 37.098694%, 78.599548%)" offset="0.527344"/><stop stop-opacity="1" stop-color="rgb(21.214294%, 37.298584%, 78.799438%)" offset="0.53125"/><stop stop-opacity="1" stop-color="rgb(21.411133%, 37.298584%, 78.804016%)" offset="0.535156"/><stop stop-opacity="1" stop-color="rgb(21.609497%, 37.298584%, 78.81012%)" offset="0.539062"/><stop stop-opacity="1" stop-color="rgb(21.803284%, 37.445068%, 79.200745%)" offset="0.542969"/><stop stop-opacity="1" stop-color="rgb(21.998596%, 37.593079%, 79.59137%)" offset="0.546875"/><stop stop-opacity="1" stop-color="rgb(22.192383%, 37.59613%, 79.594421%)" offset="0.554688"/><stop stop-opacity="1" stop-color="rgb(22.525024%, 37.799072%, 79.975891%)" offset="0.558594"/><stop stop-opacity="1" stop-color="rgb(22.665405%, 37.998962%, 80.354309%)" offset="0.5625"/><stop stop-opacity="1" stop-color="rgb(22.88208%, 38.198853%, 80.577087%)" offset="0.566406"/><stop stop-opacity="1" stop-color="rgb(23.098755%, 38.398743%, 80.799866%)" offset="0.570312"/><stop stop-opacity="1" stop-color="rgb(23.106384%, 38.406372%, 80.807495%)" offset="0.578125"/><stop stop-opacity="1" stop-color="rgb(23.306274%, 38.606262%, 81.207275%)" offset="0.582031"/><stop stop-opacity="1" stop-color="rgb(23.498535%, 38.798523%, 81.5979%)" offset="0.585938"/><stop stop-opacity="1" stop-color="rgb(23.693848%, 38.798523%, 81.5979%)" offset="0.59375"/><stop stop-opacity="1" stop-color="rgb(24.093628%, 38.998413%, 81.97937%)" offset="0.597656"/><stop stop-opacity="1" stop-color="rgb(24.299622%, 39.199829%, 82.359314%)" offset="0.601563"/><stop stop-opacity="1" stop-color="rgb(24.499512%, 39.219666%, 82.394409%)" offset="0.605469"/><stop stop-opacity="1" stop-color="rgb(24.699402%, 39.241028%, 82.43103%)" offset="0.609375"/><stop stop-opacity="1" stop-color="rgb(24.899292%, 39.431763%, 82.765198%)" offset="0.613281"/><stop stop-opacity="1" stop-color="rgb(25.099182%, 39.622498%, 83.099365%)" offset="0.617188"/><stop stop-opacity="1" stop-color="rgb(25.299072%, 39.810181%, 83.299255%)" offset="0.621094"/><stop stop-opacity="1" stop-color="rgb(25.498962%, 39.99939%, 83.499146%)" offset="0.625"/><stop stop-opacity="1" stop-color="rgb(25.498962%, 39.99939%, 83.499146%)" offset="0.632813"/><stop stop-opacity="1" stop-color="rgb(25.698853%, 40.19928%, 83.882141%)" offset="0.636719"/><stop stop-opacity="1" stop-color="rgb(25.898743%, 40.39917%, 84.265137%)" offset="0.640625"/><stop stop-opacity="1" stop-color="rgb(26.123047%, 40.59906%, 84.306335%)" offset="0.644531"/><stop stop-opacity="1" stop-color="rgb(26.347351%, 40.79895%, 84.347534%)" offset="0.648438"/><stop stop-opacity="1" stop-color="rgb(26.530457%, 40.80658%, 84.7229%)" offset="0.652344"/><stop stop-opacity="1" stop-color="rgb(26.713562%, 40.814209%, 85.099792%)" offset="0.65625"/><stop stop-opacity="1" stop-color="rgb(26.905823%, 41.00647%, 85.10437%)" offset="0.664063"/><stop stop-opacity="1" stop-color="rgb(27.294922%, 41.394043%, 85.499573%)" offset="0.667969"/><stop stop-opacity="1" stop-color="rgb(27.490234%, 41.590881%, 85.890198%)" offset="0.671875"/><stop stop-opacity="1" stop-color="rgb(27.633667%, 41.593933%, 86.080933%)" offset="0.679688"/><stop stop-opacity="1" stop-color="rgb(27.789307%, 41.786194%, 86.2854%)" offset="0.6875"/><stop stop-opacity="1" stop-color="rgb(28.007507%, 42.1875%, 86.698914%)" offset="0.691406"/><stop stop-opacity="1" stop-color="rgb(28.216553%, 42.399597%, 87.098694%)" offset="0.695313"/><stop stop-opacity="1" stop-color="rgb(28.414917%, 42.405701%, 87.106323%)" offset="0.699219"/><stop stop-opacity="1" stop-color="rgb(28.614807%, 42.411804%, 87.115479%)" offset="0.703125"/><stop stop-opacity="1" stop-color="rgb(28.807068%, 42.555237%, 87.45575%)" offset="0.707031"/><stop stop-opacity="1" stop-color="rgb(28.999329%, 42.698669%, 87.797546%)" offset="0.710938"/><stop stop-opacity="1" stop-color="rgb(29.199219%, 42.698669%, 87.986755%)" offset="0.714844"/><stop stop-opacity="1" stop-color="rgb(29.399109%, 42.698669%, 88.17749%)" offset="0.71875"/><stop stop-opacity="1" stop-color="rgb(29.399109%, 42.887878%, 88.188171%)" offset="0.726562"/><stop stop-opacity="1" stop-color="rgb(29.798889%, 43.289185%, 88.598633%)" offset="0.730469"/><stop stop-opacity="1" stop-color="rgb(30.198669%, 43.499756%, 88.999939%)" offset="0.734375"/><stop stop-opacity="1" stop-color="rgb(30.209351%, 43.510437%, 89.01062%)" offset="0.742188"/><stop stop-opacity="1" stop-color="rgb(30.410767%, 43.710327%, 89.4104%)" offset="0.746094"/><stop stop-opacity="1" stop-color="rgb(30.601501%, 43.899536%, 89.7995%)" offset="0.75"/><stop stop-opacity="1" stop-color="rgb(30.796814%, 43.899536%, 89.7995%)" offset="0.757812"/><stop stop-opacity="1" stop-color="rgb(31.195068%, 44.099426%, 90.182495%)" offset="0.761719"/><stop stop-opacity="1" stop-color="rgb(31.399536%, 44.299316%, 90.565491%)" offset="0.765625"/><stop stop-opacity="1" stop-color="rgb(31.599426%, 44.499207%, 90.782166%)" offset="0.769531"/><stop stop-opacity="1" stop-color="rgb(31.799316%, 44.699097%, 90.99884%)" offset="0.773438"/><stop stop-opacity="1" stop-color="rgb(31.813049%, 44.71283%, 91.012573%)" offset="0.78125"/><stop stop-opacity="1" stop-color="rgb(32.164001%, 44.91272%, 91.413879%)" offset="0.785156"/><stop stop-opacity="1" stop-color="rgb(32.499695%, 45.098877%, 91.799927%)" offset="0.789062"/><stop stop-opacity="1" stop-color="rgb(32.499695%, 45.098877%, 91.799927%)" offset="0.796875"/><stop stop-opacity="1" stop-color="rgb(32.699585%, 45.298767%, 92.138672%)" offset="0.800781"/><stop stop-opacity="1" stop-color="rgb(32.899475%, 45.498657%, 92.478943%)" offset="0.804688"/><stop stop-opacity="1" stop-color="rgb(33.087158%, 45.68634%, 92.488098%)" offset="0.8125"/><stop stop-opacity="1" stop-color="rgb(33.505249%, 46.087646%, 92.89856%)" offset="0.816406"/><stop stop-opacity="1" stop-color="rgb(33.734131%, 46.299744%, 93.299866%)" offset="0.820312"/><stop stop-opacity="1" stop-color="rgb(33.91571%, 46.302795%, 93.499756%)" offset="0.824219"/><stop stop-opacity="1" stop-color="rgb(34.098816%, 46.307373%, 93.699646%)" offset="0.828125"/><stop stop-opacity="1" stop-color="rgb(34.098816%, 46.502686%, 93.699646%)" offset="0.835938"/><stop stop-opacity="1" stop-color="rgb(34.487915%, 46.697998%, 94.088745%)" offset="0.839844"/><stop stop-opacity="1" stop-color="rgb(34.877014%, 46.699524%, 94.477844%)" offset="0.84375"/><stop stop-opacity="1" stop-color="rgb(35.046387%, 46.899414%, 94.647217%)" offset="0.847656"/><stop stop-opacity="1" stop-color="rgb(35.217285%, 47.099304%, 94.818115%)" offset="0.851562"/><stop stop-opacity="1" stop-color="rgb(35.27832%, 47.299194%, 95.057678%)" offset="0.855469"/><stop stop-opacity="1" stop-color="rgb(35.339355%, 47.499084%, 95.298767%)" offset="0.859375"/><stop stop-opacity="1" stop-color="rgb(35.523987%, 47.502136%, 95.498657%)" offset="0.863281"/><stop stop-opacity="1" stop-color="rgb(35.710144%, 47.506714%, 95.698547%)" offset="0.867188"/><stop stop-opacity="1" stop-color="rgb(35.905457%, 47.653198%, 95.700073%)" offset="0.871094"/><stop stop-opacity="1" stop-color="rgb(36.102295%, 47.799683%, 95.701599%)" offset="0.875"/><stop stop-opacity="1" stop-color="rgb(36.300659%, 47.991943%, 96.092224%)" offset="0.878906"/><stop stop-opacity="1" stop-color="rgb(36.499023%, 48.184204%, 96.482849%)" offset="0.882812"/><stop stop-opacity="1" stop-color="rgb(36.499023%, 48.191833%, 96.490479%)" offset="0.890625"/><stop stop-opacity="1" stop-color="rgb(36.898804%, 48.399353%, 96.899414%)" offset="0.894531"/><stop stop-opacity="1" stop-color="rgb(37.298584%, 48.599243%, 97.299194%)" offset="0.898438"/><stop stop-opacity="1" stop-color="rgb(37.309265%, 48.612976%, 97.309875%)" offset="0.90625"/><stop stop-opacity="1" stop-color="rgb(37.463379%, 48.812866%, 97.659302%)" offset="0.910156"/><stop stop-opacity="1" stop-color="rgb(37.608337%, 48.999023%, 97.999573%)" offset="0.914062"/><stop stop-opacity="1" stop-color="rgb(37.80365%, 49.194336%, 98.194885%)" offset="0.921875"/><stop stop-opacity="1" stop-color="rgb(38.191223%, 49.394226%, 98.394775%)" offset="0.929688"/><stop stop-opacity="1" stop-color="rgb(38.568115%, 49.598694%, 98.774719%)" offset="0.933594"/><stop stop-opacity="1" stop-color="rgb(38.752747%, 49.798584%, 99.151611%)" offset="0.9375"/><stop stop-opacity="1" stop-color="rgb(38.775635%, 49.798584%, 99.1745%)" offset="1"/></linearGradient><clipPath id="id5"><path d="M 37.207031 33 L 115.445312 33 L 115.445312 118.691406 L 37.207031 118.691406 Z M 37.207031 33 " clip-rule="nonzero"/></clipPath></defs><g clip-path="url(#id1)"><g clip-path="url(#id2)"><g clip-path="url(#id3)"><path fill="url(#id4)" d="M 149.847656 2.558594 L 3.058594 2.558594 L 3.058594 149.351562 L 149.847656 149.351562 Z M 149.847656 2.558594 " fill-rule="nonzero"/></g></g></g><g clip-path="url(#id5)"><path fill="#6c4eb0" d="M 94.820312 33.066406 C 91.03125 33.066406 87.75 34.09375 85.476562 35.101562 C 83.25 34.355469 79.554688 33.074219 75.117188 33.996094 C 72.535156 34.449219 70.160156 35.515625 67.980469 37.152344 C 64.394531 35.421875 60.652344 34.359375 56.722656 34.1875 C 54.304688 33.996094 44.453125 35.117188 40.917969 40.316406 C 39.621094 42.367188 38.320312 44.96875 37.761719 48.128906 C 37.203125 50.917969 37.203125 54.085938 38.132812 60.59375 C 38.691406 65.054688 39.4375 68.035156 41.109375 74.167969 C 41.296875 74.726562 42.226562 77.703125 45.015625 85.890625 C 45.566406 87.375 46.683594 90.164062 48.910156 92.765625 C 50.398438 94.625 51.886719 95.742188 53.746094 95.742188 C 56.164062 95.742188 57.832031 94.074219 59.320312 92.214844 C 59.429688 92.089844 59.546875 91.953125 59.65625 91.828125 C 59.519531 92.046875 59.394531 92.285156 59.320312 92.582031 C 58.953125 94.445312 61.179688 95.933594 63.039062 96.675781 C 64.527344 97.414062 66.195312 97.605469 67.496094 97.605469 C 69.164062 97.605469 70.472656 97.234375 71.210938 97.050781 C 71.851562 96.832031 73.230469 96.238281 74.703125 95.257812 C 74.769531 100.007812 74.8125 105.617188 74.929688 106.902344 C 75.488281 111.742188 76.789062 115.082031 79.207031 116.945312 C 81.0625 118.433594 84.410156 118.621094 84.597656 118.621094 C 87.9375 118.621094 93.144531 116.390625 95.371094 112.859375 C 96.488281 111.183594 96.859375 109.691406 97.230469 107.644531 C 97.601562 106.53125 97.972656 100.023438 98.160156 98.722656 C 98.414062 96.667969 98.609375 94.640625 98.804688 92.671875 C 100.03125 92.992188 101.542969 93.332031 103.183594 93.332031 C 106.152344 93.332031 110.058594 91.28125 110.796875 90.90625 C 112.285156 89.792969 115.253906 87.191406 113.957031 84.960938 C 113.214844 83.65625 112.097656 83.65625 109.308594 84.03125 C 109.308594 84.03125 104.851562 84.585938 104.476562 84.394531 C 104.207031 84.292969 103.792969 84.03125 103.328125 83.691406 C 104.292969 82.195312 105.148438 80.710938 106.152344 79.382812 C 108.378906 75.105469 109.6875 71.753906 110.617188 69.152344 C 112.285156 64.503906 113.214844 60.777344 113.765625 58.175781 C 115.074219 52.597656 115.445312 49.996094 114.695312 47.015625 C 113.214844 41.808594 107.820312 37.347656 105.59375 36.046875 C 104.105469 35.296875 100.394531 33.066406 94.820312 33.066406 Z M 94.820312 36.789062 C 99.464844 36.789062 102.625 38.648438 104.292969 39.386719 C 106.339844 40.507812 110.988281 44.226562 111.355469 47.757812 C 111.546875 49.804688 111.726562 51.855469 110.429688 57.246094 C 109.6875 59.847656 108.941406 63.195312 107.261719 67.847656 C 106.332031 70.445312 105.222656 73.613281 102.996094 77.523438 C 102.9375 77.617188 102.871094 77.71875 102.8125 77.820312 C 103.03125 77.035156 103.183594 76.402344 103.183594 76.402344 C 103.554688 74.542969 103.554688 73.054688 103.363281 70.824219 C 103.175781 69.707031 102.996094 66.914062 102.996094 65.796875 C 102.996094 65.246094 103.546875 59.476562 103.734375 57.425781 C 103.921875 54.085938 101.875 49.988281 101.324219 49.246094 C 98.535156 44.96875 97.050781 42.554688 94.074219 40.136719 C 93.332031 39.503906 92.0625 38.449219 90.335938 37.390625 C 91.699219 37.054688 93.207031 36.789062 94.820312 36.789062 Z M 78.398438 37.550781 C 80.824219 37.609375 82.878906 38.277344 84.410156 38.835938 C 88.316406 40.136719 90.726562 42.179688 91.84375 43.109375 C 94.261719 45.15625 95.5625 47.207031 98.347656 51.484375 C 98.550781 51.890625 99.082031 52.757812 99.503906 53.960938 C 95.699219 53.613281 93.171875 54.949219 91.65625 56.316406 C 89.425781 58.175781 89.609375 60.964844 89.796875 63.007812 C 89.796875 64.496094 90.175781 66.363281 92.960938 72.683594 C 94.074219 75.472656 95.183594 78.445312 96.300781 80.496094 C 96.882812 81.648438 97.59375 82.710938 98.355469 83.65625 C 97.914062 83.878906 97.460938 84.171875 97.042969 84.585938 C 95.929688 85.886719 95.742188 87.191406 95.371094 89.613281 C 95 91.472656 94.632812 95.375 94.441406 98.535156 C 94.441406 99.835938 93.890625 106.164062 93.703125 107.09375 C 93.144531 108.953125 92.953125 109.882812 92.214844 111 C 90.914062 113.042969 86.828125 114.71875 84.410156 114.53125 C 83.667969 114.53125 82.550781 114.53125 81.621094 113.789062 C 79.574219 112.300781 78.835938 108.953125 78.644531 106.351562 C 78.457031 104.492188 78.644531 91.09375 78.277344 88.117188 C 78.085938 87.375 77.90625 85.515625 76.417969 84.214844 C 75.792969 83.691406 74.5 83.421875 73.28125 83.242188 C 73.296875 82.617188 73.332031 81.992188 73.449219 81.425781 C 73.628906 80.304688 74 79.746094 74.378906 78.816406 C 74.558594 78.265625 74.929688 77.523438 75.308594 76.59375 C 76.976562 71.382812 76.597656 64.496094 75.671875 60.21875 C 75.488281 59.847656 74.742188 56.875 72.140625 55.203125 C 69.355469 53.527344 66.378906 54.457031 64.707031 55.015625 C 64.019531 55.203125 63.335938 55.503906 62.652344 55.851562 C 62.769531 55.074219 62.871094 54.289062 63.039062 53.527344 C 63.777344 49.804688 64.527344 46.644531 66.945312 43.484375 C 69.542969 40.316406 72.511719 38.277344 75.859375 37.71875 C 76.746094 37.578125 77.59375 37.527344 78.398438 37.550781 Z M 55.453125 37.878906 C 55.886719 37.871094 56.257812 37.878906 56.535156 37.90625 C 59.4375 38.058594 62.21875 38.742188 64.976562 39.902344 C 64.636719 40.28125 64.292969 40.660156 63.96875 41.066406 C 60.808594 44.785156 60.0625 48.6875 59.320312 52.597656 C 58.394531 57.246094 58.203125 62.078125 58.945312 66.914062 L 58.582031 70.445312 C 58.394531 72.308594 58.015625 75.84375 60.0625 79.566406 C 60.78125 80.800781 61.574219 81.847656 62.445312 82.738281 C 60.554688 85.238281 58.550781 87.601562 56.535156 89.792969 C 55.417969 91.09375 54.488281 92.023438 53.746094 92.023438 C 53.558594 92.023438 52.816406 91.652344 51.699219 90.351562 C 49.652344 88.121094 48.910156 85.703125 48.542969 84.773438 C 46.3125 78.074219 45.015625 73.796875 44.824219 73.238281 C 43.335938 67.285156 42.597656 64.316406 41.847656 60.035156 C 40.917969 54.085938 40.917969 51.105469 41.476562 48.695312 C 42.039062 46.085938 42.964844 44.039062 43.894531 42.554688 C 46.175781 38.972656 52.433594 37.957031 55.453125 37.878906 Z M 98.09375 57.480469 C 98.691406 57.480469 99.335938 57.550781 100.019531 57.695312 C 99.996094 59.433594 99.277344 64.882812 99.277344 65.617188 C 99.277344 67.105469 99.648438 70.078125 99.648438 71.195312 C 99.835938 73.242188 99.835938 74.355469 99.648438 75.84375 C 99.648438 75.84375 99.371094 77.175781 99.089844 78.117188 C 98.226562 76.164062 97.265625 73.832031 96.113281 71.195312 C 93.324219 64.875 93.144531 63.574219 93.144531 62.644531 C 93.144531 61.335938 93.144531 59.664062 94.253906 58.925781 C 95.300781 57.996094 96.570312 57.492188 98.09375 57.480469 Z M 69.246094 58.023438 C 69.617188 58.066406 69.957031 58.175781 70.285156 58.359375 C 71.773438 59.105469 72.140625 60.964844 72.140625 60.964844 C 73.070312 65.054688 73.441406 71.195312 71.953125 75.285156 C 71.773438 76.027344 71.402344 76.585938 71.210938 77.144531 C 70.84375 78.074219 70.472656 79.003906 70.09375 80.675781 C 70 81.367188 69.957031 82.050781 69.933594 82.730469 C 68.648438 82.464844 67.4375 82.003906 66.566406 81.425781 C 65.078125 80.683594 63.96875 79.375 63.226562 77.886719 C 61.921875 75.097656 62.109375 72.496094 62.296875 71.011719 L 62.660156 66.726562 C 62.398438 64.632812 62.277344 62.535156 62.304688 60.449219 C 63.164062 59.714844 64.28125 58.96875 65.828125 58.546875 C 66.945312 58.269531 68.164062 57.886719 69.246094 58.023438 Z M 96.648438 59.273438 C 96.164062 59.292969 95.648438 59.382812 95.371094 59.476562 C 94.632812 59.664062 94.441406 59.664062 94.253906 60.035156 C 94.074219 60.40625 94.632812 60.964844 94.820312 61.335938 C 95 61.335938 95.5625 61.894531 96.300781 61.714844 C 96.859375 61.523438 97.230469 61.15625 97.417969 60.964844 C 97.609375 60.777344 98.347656 59.847656 97.789062 59.476562 C 97.601562 59.289062 97.136719 59.242188 96.648438 59.273438 Z M 68.824219 60.625 C 68.621094 60.640625 68.425781 60.691406 68.238281 60.785156 C 68.054688 60.785156 67.683594 60.964844 67.496094 61.335938 C 67.308594 61.707031 67.496094 62.078125 67.683594 62.265625 C 68.054688 62.824219 68.613281 63.386719 69.542969 63.386719 C 69.730469 63.386719 70.472656 63.386719 71.023438 62.824219 C 71.023438 62.824219 71.589844 62.265625 71.589844 61.714844 C 71.402344 61.335938 71.03125 61.15625 70.472656 60.964844 C 70.050781 60.828125 69.425781 60.582031 68.824219 60.625 Z M 65.40625 84.960938 C 66.546875 85.574219 67.917969 86.066406 69.417969 86.410156 C 69.019531 87.207031 68.445312 87.867188 67.875 88.304688 C 66.566406 89.234375 64.898438 89.792969 63.226562 90.164062 C 62.851562 90.164062 62.667969 90.351562 62.296875 90.351562 C 61.398438 90.609375 60.527344 90.890625 59.933594 91.507812 C 61.753906 89.480469 63.582031 87.242188 65.40625 84.960938 Z M 101.238281 86.453125 C 102.050781 87.0625 102.847656 87.511719 103.546875 87.753906 C 104.664062 88.121094 105.59375 88.121094 108.941406 87.753906 C 108.378906 88.304688 106.710938 89.234375 104.292969 89.613281 C 102.742188 89.765625 100.808594 89.394531 99.242188 88.945312 C 99.386719 87.890625 99.554688 87.289062 99.828125 87.003906 C 99.929688 86.910156 100.546875 86.71875 101.238281 86.453125 Z M 73.253906 87.011719 C 73.636719 87.078125 73.941406 87.128906 74 87.1875 C 74.371094 87.5625 74.558594 88.492188 74.558594 88.863281 C 74.582031 89.183594 74.59375 89.988281 74.609375 90.550781 C 73.078125 92.34375 70.617188 93.339844 70.09375 93.511719 C 69.355469 93.882812 67.125 94.253906 64.898438 93.511719 C 66.753906 92.953125 68.613281 92.402344 70.09375 91.28125 C 71.394531 90.351562 72.511719 88.871094 73.253906 87.011719 Z M 73.253906 87.011719 " fill-opacity="1" fill-rule="nonzero"/></g></svg>