<?xml version="1.0" encoding="UTF-8" standalone="no"?>
<!DOCTYPE svg PUBLIC "-//W3C//DTD SVG 1.1//EN" "http://www.w3.org/Graphics/SVG/1.1/DTD/svg11.dtd">
<!-- Created with Vectornator (http://vectornator.io/) -->
<svg height="100%" stroke-miterlimit="10" style="fill-rule:nonzero;clip-rule:evenodd;stroke-linecap:round;stroke-linejoin:round;" version="1.1" viewBox="0 0 810 810" width="100%" xml:space="preserve" xmlns="http://www.w3.org/2000/svg" xmlns:xlink="http://www.w3.org/1999/xlink">
<defs/>
<g id="Untitled">
<path d="M34.0349 27.5226L50.0349 27.5226L50.0349 27.5226L50.0349 43.5226L50.0349 43.5226L34.0349 43.5226L34.0349 43.5226L34.0349 27.5226L34.0349 27.5226Z" fill="#ffffff" fill-rule="nonzero" opacity="1" stroke="none"/>
<path d="M34.0349 27.5226L50.0349 27.5226L50.0349 27.5226L50.0349 43.5226L50.0349 43.5226L34.0349 43.5226L34.0349 43.5226L34.0349 27.5226L34.0349 27.5226Z" fill="#ffffff" fill-rule="nonzero" opacity="1" stroke="none"/>
<path d="M34.0349 27.5226L50.0349 27.5226L50.0349 27.5226L50.0349 43.5226L50.0349 43.5226L34.0349 43.5226L34.0349 43.5226L34.0349 27.5226L34.0349 27.5226Z" fill="#000000" fill-rule="nonzero" opacity="1" stroke="none"/>
<path d="M39.1905 39.1081C39.4337 39.1081 39.6678 39.0631 39.884 38.973C40.1001 38.8829 40.2803 38.7478 40.4424 38.5857C40.6045 38.4236 40.7306 38.2344 40.8207 38.0183C40.9107 37.8022 40.9648 37.577 40.9648 37.3248L40.9648 31.7678C40.9648 31.7678 40.9648 31.7587 40.9648 31.7497C40.9648 31.7497 40.9738 31.7407 40.9738 31.7227L41.0729 31.4525C41.0909 31.4075 41.0819 31.3624 41.0549 31.3174C41.0188 31.2724 40.9828 31.2453 40.9288 31.2453L38.4699 31.2453C38.4249 31.2453 38.3889 31.2634 38.3619 31.2904C38.3258 31.3264 38.3168 31.3624 38.3168 31.3985L38.3168 32.119C38.3168 32.2181 38.3619 32.2631 38.4609 32.2631C38.4789 32.2631 38.497 32.2631 38.515 32.2541L38.7942 32.155C38.8032 32.155 38.8212 32.146 38.8392 32.146L40.0641 32.146L40.0641 37.3248C40.0641 37.577 39.974 37.7842 39.8119 37.9553C39.6408 38.1264 39.4337 38.2074 39.1905 38.2074C38.9383 38.2074 38.7311 38.1264 38.56 37.9553C38.3889 37.7842 38.3078 37.577 38.3078 37.3248L38.3078 37.2618C38.3078 37.2437 38.3078 37.2347 38.3168 37.2167L38.4159 36.9465C38.4339 36.9015 38.4249 36.8564 38.3889 36.8114C38.3528 36.7664 38.3168 36.7393 38.2718 36.7393L37.4432 36.7393C37.3892 36.7393 37.3532 36.7574 37.3261 36.7844C37.2991 36.8204 37.2901 36.8564 37.2901 36.8925C37.2901 36.9195 37.2901 36.9375 37.2991 36.9465L37.3982 37.2167C37.3982 37.2347 37.3982 37.2437 37.3982 37.2437C37.3982 37.2527 37.4072 37.2618 37.4072 37.2618L37.4072 37.3248C37.4072 37.577 37.4522 37.8022 37.5423 38.0183C37.6323 38.2344 37.7674 38.4236 37.9295 38.5857C38.0916 38.7478 38.2808 38.8829 38.497 38.973C38.7131 39.0631 38.9383 39.1081 39.1905 39.1081Z" fill="#ffffff" fill-rule="nonzero" opacity="1" stroke="none"/>
<path d="M41.8788 39.0487L42.6928 39.0487C42.7464 39.0487 42.7912 39.0308 42.8269 38.986C42.8627 38.9503 42.8895 38.9055 42.8895 38.8519C42.8895 38.7982 42.8806 38.7535 42.8717 38.7177C42.8627 38.6909 42.8627 38.6641 42.8627 38.6283C42.8627 38.5925 42.8717 38.5299 42.8895 38.4404C42.9074 38.351 42.9432 38.2079 43.0058 37.9932C43.0595 37.7785 43.14 37.4834 43.2473 37.0988C43.3546 36.7142 43.4888 36.2044 43.6677 35.5604C43.9539 35.6677 44.2044 35.8197 44.428 35.9986C44.6426 36.1864 44.8394 36.3922 45.0004 36.6068C45.1614 36.8215 45.3045 37.0451 45.4208 37.2688C45.5281 37.5013 45.6175 37.707 45.6891 37.8948C45.7607 38.0827 45.8054 38.2347 45.8412 38.3599C45.868 38.4852 45.8859 38.5567 45.8859 38.5746L45.8591 38.843C45.8501 38.8966 45.868 38.9413 45.9128 38.986C45.9574 39.0308 46.0111 39.0487 46.0648 39.0487L46.8787 39.0487C46.9502 39.0487 46.995 39.0129 46.995 38.9324C46.995 38.9055 46.9861 38.8787 46.9682 38.843C46.9324 38.7893 46.8966 38.7446 46.8787 38.7266C46.8608 38.7088 46.8429 38.6819 46.825 38.6461C46.8072 38.6104 46.7803 38.5478 46.7535 38.4583C46.7267 38.3778 46.6909 38.2437 46.6372 38.0648C46.5835 37.8859 46.5209 37.6444 46.4405 37.3313C46.36 37.0272 46.2526 36.6247 46.1274 36.1328C45.9932 35.6498 45.8322 35.0505 45.6534 34.3529C45.4655 33.6552 45.2419 32.8323 44.9915 31.8664C44.9825 31.8485 44.9736 31.8216 44.9736 31.8037C44.9736 31.7859 44.9736 31.768 44.9736 31.7501C44.9736 31.6964 44.9825 31.6248 45.0183 31.5533L45.063 31.446C45.0809 31.4013 45.072 31.3565 45.0362 31.3118C45.0004 31.2671 44.9468 31.2403 44.8841 31.2403L43.8645 31.2403C43.8108 31.2403 43.775 31.2581 43.7393 31.285C43.7035 31.3208 43.6856 31.3565 43.6856 31.3923C43.6856 31.4192 43.6856 31.437 43.6945 31.446L43.7393 31.5533C43.7661 31.6248 43.784 31.6964 43.784 31.7501C43.784 31.768 43.775 31.7859 43.775 31.8037C43.775 31.8216 43.7661 31.8485 43.7661 31.8664L43.0505 34.5228C43.0147 34.5228 42.979 34.5139 42.9432 34.5139L42.8358 34.5139C42.4781 34.5139 42.1472 34.5765 41.8252 34.6838C41.5032 34.7911 41.217 34.9521 40.9754 35.1668C40.725 35.3815 40.5282 35.6319 40.3762 35.936C40.2242 36.2401 40.1437 36.5711 40.1347 36.9467L40.1347 37.0094C40.1347 37.0183 40.1257 37.0362 40.1257 37.0541C40.1168 37.0719 40.1078 37.1077 40.09 37.1435C40.0721 37.1793 40.0542 37.2419 40.0273 37.3224C40.0095 37.3761 40.0095 37.4208 40.0453 37.4655C40.0721 37.5102 40.1168 37.5281 40.1705 37.5281L40.9933 37.5281C41.0291 37.5281 41.0649 37.5192 41.1007 37.4834C41.1275 37.4566 41.1454 37.4208 41.1454 37.3671C41.1454 37.3493 41.1365 37.3403 41.1365 37.3224C41.0828 37.2061 41.0559 37.1346 41.047 37.0988C41.0291 37.063 41.0291 37.0362 41.0291 37.0094C41.0291 36.7679 41.0828 36.5442 41.1812 36.3475C41.2706 36.1507 41.4048 35.9897 41.5658 35.8466C41.7268 35.7035 41.9146 35.5962 42.1293 35.5246C42.344 35.453 42.5675 35.4083 42.818 35.4083C42.648 36.0254 42.5139 36.5263 42.4155 36.9199C42.3081 37.3134 42.2276 37.6176 42.1651 37.8501C42.1024 38.0827 42.0578 38.2526 42.0309 38.3599C41.9951 38.4672 41.9682 38.5478 41.9504 38.5925C41.9325 38.6461 41.9057 38.6819 41.8878 38.7088C41.8609 38.7356 41.8252 38.7803 41.7894 38.843C41.7715 38.8787 41.7625 38.9055 41.7625 38.9324C41.7625 39.0129 41.7984 39.0487 41.8788 39.0487ZM45.0183 35.3188C44.8394 35.1758 44.6605 35.0595 44.4727 34.9521C44.2759 34.8448 44.0881 34.7643 43.9003 34.6927C43.9539 34.4781 44.0076 34.2814 44.0612 34.1025C44.106 33.9235 44.1507 33.7626 44.1865 33.6194C44.2222 33.4853 44.2491 33.3779 44.2759 33.2974L44.3117 33.1722C44.3117 33.1364 44.3385 33.1185 44.3832 33.1185C44.4101 33.1185 44.428 33.1364 44.4459 33.1722C44.4459 33.1812 44.4548 33.2438 44.4906 33.3601C44.5264 33.4853 44.5711 33.6373 44.6248 33.8341C44.6784 34.0309 44.7321 34.2634 44.8036 34.5139C44.8752 34.7733 44.9468 35.0416 45.0183 35.3188Z" fill="#ff5757" fill-rule="nonzero" opacity="1" stroke="none"/>
</g>
</svg>
